<svg width="106" height="105" viewBox="0 0 106 105" fill="none" xmlns="http://www.w3.org/2000/svg">
<mask id="mask0_269_24" style="mask-type:alpha" maskUnits="userSpaceOnUse" x="0" y="0" width="106" height="105">
<rect x="0.5" width="105" height="105" fill="#D9D9D9"/>
</mask>
<g mask="url(#mask0_269_24)">
<path d="M39.875 78.75C37.4687 78.75 35.4089 77.8932 33.6953 76.1797C31.9818 74.4661 31.125 72.4063 31.125 70V17.5C31.125 15.0937 31.9818 13.0339 33.6953 11.3203C35.4089 9.60677 37.4687 8.75 39.875 8.75H79.25C81.6563 8.75 83.7161 9.60677 85.4297 11.3203C87.1432 13.0339 88 15.0937 88 17.5V70C88 72.4063 87.1432 74.4661 85.4297 76.1797C83.7161 77.8932 81.6563 78.75 79.25 78.75H39.875ZM39.875 70H79.25V17.5H39.875V70ZM22.375 96.25C19.9687 96.25 17.9089 95.3932 16.1953 93.6797C14.4818 91.9661 13.625 89.9063 13.625 87.5V26.25H22.375V87.5H70.5V96.25H22.375Z" fill="white"/>
</g>
</svg>
