<svg width="22" height="17" viewBox="0 0 22 17" fill="none" xmlns="http://www.w3.org/2000/svg">
<path d="M22 12.1666C22 12.7785 22 13.3429 21.9393 13.9074C21.938 13.9897 21.9175 14.0705 21.8793 14.1431C21.8411 14.2157 21.7864 14.278 21.7197 14.3248C20.1361 15.4836 18.3808 16.3786 16.5197 16.9763C16.4617 17.0036 16.3957 17.0075 16.335 16.9872C16.2743 16.967 16.2234 16.9241 16.1926 16.8672C15.8398 16.3398 15.5124 15.7952 15.2115 15.2355C15.1321 15.079 15.1835 15.0173 15.3236 14.9651C15.8291 14.7594 16.3207 14.5201 16.7953 14.2489C16.9261 14.173 16.9589 14.1303 16.8327 14.0022C16.5898 13.7603 16.5804 13.7461 16.2814 13.8789C14.3705 14.7282 12.2909 15.1131 10.2077 15.0031C8.62636 14.9144 7.07373 14.5368 5.62444 13.8884C5.5246 13.8648 5.42008 13.8721 5.32434 13.9093C5.2286 13.9465 5.146 14.0119 5.08716 14.0971C5.04978 14.1777 5.11519 14.192 5.15724 14.2299C5.44618 14.435 5.76032 14.6009 6.09165 14.7232C6.28434 14.8203 6.48246 14.9058 6.685 14.9794C6.82983 15.0315 6.82983 15.098 6.76442 15.2165C6.47676 15.7758 6.15209 16.3146 5.79264 16.8293C5.76852 16.8778 5.72672 16.9149 5.67612 16.9326C5.62551 16.9503 5.5701 16.9473 5.52166 16.9241L4.69003 16.6633C3.09716 16.1072 1.59727 15.3074 0.242234 14.2916C0.194303 14.26 0.154471 14.2173 0.126035 14.167C0.0975987 14.1167 0.0813766 14.0602 0.0787117 14.0022C-0.161332 11.373 0.149148 8.72194 0.989763 6.22314C1.56123 4.57309 2.33342 3.00195 3.28841 1.5462C3.34415 1.46098 3.42394 1.39484 3.51734 1.35646C4.86049 0.741647 6.27256 0.295634 7.7222 0.0283261C7.78355 0.00862248 7.85005 0.0139435 7.90761 0.0431619C7.96517 0.0723803 8.00926 0.123201 8.03055 0.184857C8.14735 0.440998 8.29219 0.687652 8.3903 0.948536C8.40025 0.989967 8.41869 1.0288 8.44441 1.06252C8.47014 1.09623 8.50257 1.12406 8.5396 1.1442C8.57662 1.16434 8.61741 1.17633 8.65931 1.1794C8.7012 1.18246 8.74327 1.17653 8.78275 1.16199C9.35569 1.07828 9.93283 1.0276 10.5114 1.0102C11.3763 0.983056 12.2419 1.02747 13.0997 1.14301H13.2913C13.3228 1.15464 13.3564 1.15938 13.3899 1.15692C13.4233 1.15447 13.4559 1.14486 13.4854 1.12874C13.515 1.11262 13.5408 1.09035 13.5613 1.06339C13.5818 1.03642 13.5965 1.00536 13.6043 0.972253C13.7071 0.711369 13.8473 0.464714 13.9594 0.20383C13.9704 0.166197 13.9889 0.131275 14.0138 0.101258C14.0387 0.0712403 14.0694 0.0467765 14.1041 0.0294034C14.1388 0.0120303 14.1766 0.00212349 14.2152 0.00030552C14.2538 -0.00151245 14.2924 0.00479768 14.3285 0.0188394C15.7399 0.283657 17.1164 0.713417 18.4305 1.29954C18.5903 1.37894 18.7236 1.50431 18.8137 1.66004C19.4997 2.70137 20.0894 3.80496 20.575 4.95667C21.3365 6.75166 21.8097 8.65896 21.9766 10.606C21.9766 11.1373 21.9766 11.6733 22 12.1666ZM12.6792 9.17825C12.6362 9.78025 12.8256 10.3756 13.2072 10.8384C13.3618 11.0526 13.5605 11.2301 13.7894 11.3586C14.0184 11.487 14.2721 11.5634 14.533 11.5823C14.7939 11.6013 15.0558 11.5624 15.3004 11.4683C15.545 11.3743 15.7666 11.2273 15.9497 11.0376C16.322 10.6539 16.5584 10.1556 16.6218 9.62083C16.6852 9.08604 16.5721 8.54502 16.3001 8.08254C16.1753 7.84834 16.0026 7.644 15.7935 7.48327C15.5844 7.32254 15.3439 7.20915 15.088 7.15072C14.8321 7.09229 14.5669 7.09019 14.3102 7.14456C14.0534 7.19893 13.8112 7.3085 13.5996 7.4659C13.3261 7.65952 13.1007 7.91496 12.9409 8.2121C12.7812 8.50925 12.6916 8.83998 12.6792 9.17825ZM5.38617 9.36799C5.37685 9.71324 5.4477 10.0559 5.59298 10.3682C5.73827 10.6805 5.95391 10.9537 6.22247 11.1657C6.56865 11.4532 7.00727 11.6006 7.45401 11.5795C7.90075 11.5585 8.32407 11.3706 8.64259 11.0519C9.05398 10.6355 9.29995 10.0798 9.33356 9.49103C9.36717 8.90223 9.18606 8.32148 8.8248 7.8596C8.54569 7.48191 8.13581 7.22583 7.67793 7.14307C7.22006 7.06031 6.74831 7.15704 6.35795 7.41373C6.0479 7.63095 5.79647 7.92367 5.6267 8.26509C5.45692 8.60651 5.37422 8.98572 5.38617 9.36799Z" fill="white"/>
</svg>
