<svg width="1073" height="1073" viewBox="0 0 1073 1073" fill="none" xmlns="http://www.w3.org/2000/svg">
<rect width="1073" height="1073" rx="536.5" fill="url(#paint0_linear_119_2)"/>
<path fill-rule="evenodd" clip-rule="evenodd" d="M552.052 875.458C737.807 853.899 882.747 632.476 831.642 526.714C816.728 495.847 787.326 479.424 755.191 461.475C717.303 440.311 675.614 417.026 649.392 365.44C624.561 316.601 630.534 275.705 634.825 246.33C638.154 223.538 640.47 207.681 626.597 200.433C562.516 167.015 212.256 347.904 231.779 589.2C241.942 714.882 353.279 867.553 508.197 876.723C512.46 876.975 516.708 877.116 520.94 877.149C521.154 877.164 521.368 877.178 521.582 877.192C521.802 877.206 522.022 877.22 522.242 877.233C532.37 877.835 542.337 877.182 552.052 875.458ZM552.052 875.458C641.875 859.524 710.213 752.121 685.181 700.067C677.668 684.443 662.856 676.131 646.668 667.045C627.581 656.333 606.58 644.546 593.371 618.435C580.862 593.714 583.871 573.013 586.032 558.144C587.709 546.607 588.876 538.581 581.887 534.912C549.606 517.997 373.159 609.559 382.994 731.696C388.085 794.959 443.578 871.731 520.94 877.149C531.418 877.23 541.797 876.649 552.052 875.458Z" fill="black"/>
<defs>
<linearGradient id="paint0_linear_119_2" x1="-16" y1="-15" x2="1073" y2="1073" gradientUnits="userSpaceOnUse">
<stop stop-color="#FF0000"/>
<stop offset="1" stop-color="#FE005B"/>
</linearGradient>
</defs>
</svg>
