<svg width="20" height="20" viewBox="0 0 20 20" fill="none" xmlns="http://www.w3.org/2000/svg">
<path d="M10.0001 1.87231C8.02133 1.8724 6.10716 2.57658 4.60007 3.85885C3.09299 5.14113 2.09135 6.91783 1.77438 8.87105C1.45741 10.8243 1.84579 12.8265 2.87002 14.5196C3.89425 16.2127 5.48751 17.4861 7.3647 18.1119C7.78137 18.1848 7.93762 17.9348 7.93762 17.7161C7.93762 17.5181 7.9272 16.8619 7.9272 16.164C5.83344 16.5494 5.29177 15.6536 5.1251 15.1848C4.94017 14.7289 4.647 14.3249 4.27094 14.0077C3.97927 13.8515 3.5626 13.4661 4.26051 13.4557C4.527 13.4846 4.78259 13.5773 5.00563 13.726C5.22867 13.8747 5.41257 14.0749 5.54177 14.3098C5.65575 14.5146 5.809 14.6948 5.99276 14.8402C6.17652 14.9856 6.38717 15.0934 6.61263 15.1572C6.8381 15.2211 7.07395 15.2398 7.30667 15.2124C7.53939 15.185 7.76441 15.1119 7.96884 14.9973C8.00491 14.5737 8.19372 14.1776 8.5001 13.8828C6.64594 13.6744 4.70844 12.9556 4.70844 9.76817C4.69673 8.93996 5.00234 8.13865 5.5626 7.52859C5.30784 6.80877 5.33765 6.01883 5.64594 5.32026C5.64594 5.32026 6.34383 5.1015 7.9376 6.17442C9.30118 5.7994 10.7407 5.7994 12.1043 6.17442C13.698 5.09109 14.3959 5.32026 14.3959 5.32026C14.7043 6.01882 14.7341 6.80878 14.4793 7.52859C15.0412 8.13761 15.3471 8.93962 15.3334 9.76817C15.3334 12.9661 13.3855 13.6744 11.5314 13.8828C11.7302 14.0843 11.8834 14.3263 11.9805 14.5923C12.0775 14.8584 12.1162 15.1421 12.0939 15.4244C12.0939 16.539 12.0834 17.4348 12.0834 17.7161C12.0834 17.9348 12.2397 18.1953 12.6563 18.1119C14.5302 17.481 16.1189 16.2046 17.1388 14.5107C18.1587 12.8168 18.5433 10.8155 18.2242 8.86418C17.905 6.91285 16.9027 5.13846 15.3963 3.85774C13.8899 2.57702 11.9774 1.87334 10.0001 1.87231Z" fill="black"/>
</svg>
