<svg width="17" height="17" viewBox="0 0 17 17" fill="none" xmlns="http://www.w3.org/2000/svg">
<path d="M8.49996 0C6.48163 8.58124e-05 4.52918 0.736515 2.99197 2.07752C1.45476 3.41852 0.433096 5.27659 0.109786 7.31926C-0.213525 9.36194 0.182617 11.4559 1.22733 13.2265C2.27204 14.9971 3.89715 16.3288 5.81187 16.9833C6.23687 17.0596 6.39624 16.7981 6.39624 16.5694C6.39624 16.3624 6.38561 15.6761 6.38561 14.9462C4.24999 15.3493 3.6975 14.4124 3.5275 13.9222C3.33886 13.4454 3.03984 13.0229 2.65625 12.6912C2.35876 12.5278 1.93376 12.1247 2.64562 12.1138C2.91744 12.1441 3.17814 12.2411 3.40564 12.3966C3.63313 12.5521 3.82072 12.7615 3.9525 13.0071C4.06875 13.2212 4.22507 13.4097 4.4125 13.5618C4.59994 13.7139 4.81479 13.8265 5.04477 13.8933C5.27474 13.9601 5.5153 13.9797 5.75268 13.951C5.99005 13.9223 6.21957 13.8459 6.42809 13.7261C6.46488 13.283 6.65747 12.8688 6.96997 12.5605C5.07874 12.3426 3.1025 11.5909 3.1025 8.25747C3.09056 7.39133 3.40228 6.55333 3.97375 5.91532C3.71389 5.16254 3.74429 4.33641 4.05874 3.60585C4.05874 3.60585 4.77059 3.37707 6.39623 4.49914C7.78706 4.10694 9.25536 4.10694 10.6462 4.49914C12.2718 3.36619 12.9837 3.60585 12.9837 3.60585C13.2982 4.3364 13.3286 5.16254 13.0687 5.91532C13.6419 6.55223 13.9539 7.39097 13.9399 8.25747C13.9399 11.6018 11.953 12.3426 10.0618 12.5605C10.2647 12.7713 10.4209 13.0244 10.5199 13.3026C10.6189 13.5808 10.6584 13.8776 10.6356 14.1728C10.6356 15.3384 10.6249 16.2752 10.6249 16.5694C10.6249 16.7982 10.7843 17.0705 11.2093 16.9834C13.1207 16.3235 14.7411 14.9887 15.7814 13.2172C16.8216 11.4457 17.214 9.35277 16.8885 7.31208C16.5629 5.27138 15.5406 3.41573 14.0041 2.07635C12.4675 0.736983 10.5168 0.00107622 8.49996 0Z" fill="white"/>
</svg>
