<svg width="332" height="73" viewBox="0 0 332 73" fill="none" xmlns="http://www.w3.org/2000/svg">
<path d="M20.822 60.696C17.4967 60.696 14.5387 60 11.948 58.608C9.396 57.216 7.38533 55.302 5.916 52.866C4.44667 50.43 3.712 47.6653 3.712 44.572V16.79H11.6V44.166C11.6 45.9447 11.9867 47.5493 12.76 48.98C13.572 50.4107 14.674 51.532 16.066 52.344C17.458 53.1173 19.0433 53.504 20.822 53.504C22.6393 53.504 24.2247 53.1173 25.578 52.344C26.97 51.532 28.0527 50.4107 28.826 48.98C29.638 47.5493 30.044 45.9447 30.044 44.166V16.79H37.932V44.572C37.932 47.6653 37.1973 50.43 35.728 52.866C34.2587 55.302 32.2287 57.216 29.638 58.608C27.086 60 24.1473 60.696 20.822 60.696ZM45.1689 60V28.448H52.3029V34.654L51.7229 33.552C52.4575 31.6573 53.6562 30.2267 55.3189 29.26C57.0202 28.2547 58.9922 27.752 61.2349 27.752C63.5549 27.752 65.6042 28.2547 67.3829 29.26C69.2002 30.2653 70.6115 31.6767 71.6169 33.494C72.6222 35.2727 73.1249 37.3413 73.1249 39.7V60H65.5269V41.498C65.5269 40.106 65.2562 38.9073 64.7149 37.902C64.1735 36.8967 63.4195 36.1233 62.4529 35.582C61.5249 35.002 60.4229 34.712 59.1469 34.712C57.9095 34.712 56.8075 35.002 55.8409 35.582C54.8742 36.1233 54.1202 36.8967 53.5789 37.902C53.0375 38.9073 52.7669 40.106 52.7669 41.498V60H45.1689ZM96.7757 60.696C94.4944 60.696 92.3871 60.2513 90.4537 59.362C88.5591 58.434 87.0511 57.1193 85.9297 55.418L86.6837 53.91V60H79.5497V16.094H87.1477V34.712L85.9877 33.146C87.0704 31.4447 88.5397 30.13 90.3957 29.202C92.2517 28.2353 94.3977 27.752 96.8337 27.752C99.8111 27.752 102.498 28.4867 104.896 29.956C107.293 31.4253 109.188 33.3973 110.58 35.872C112.01 38.3467 112.726 41.1307 112.726 44.224C112.726 47.2787 112.03 50.0627 110.638 52.576C109.246 55.0893 107.351 57.0807 104.954 58.55C102.556 59.9807 99.8304 60.696 96.7757 60.696ZM95.9057 53.736C97.6457 53.736 99.1924 53.33 100.546 52.518C101.899 51.706 102.943 50.5847 103.678 49.154C104.451 47.7233 104.838 46.08 104.838 44.224C104.838 42.368 104.451 40.744 103.678 39.352C102.943 37.9213 101.899 36.8 100.546 35.988C99.1924 35.1373 97.6457 34.712 95.9057 34.712C94.2431 34.712 92.7351 35.118 91.3817 35.93C90.0671 36.742 89.0231 37.8827 88.2497 39.352C87.5151 40.7827 87.1477 42.4067 87.1477 44.224C87.1477 46.08 87.5151 47.7233 88.2497 49.154C89.0231 50.5847 90.0671 51.706 91.3817 52.518C92.7351 53.33 94.2431 53.736 95.9057 53.736ZM129.77 60.696C127.334 60.696 125.208 60.1547 123.39 59.072C121.612 57.9893 120.239 56.4813 119.272 54.548C118.344 52.6147 117.88 50.3527 117.88 47.762V28.448H125.478V47.124C125.478 48.4387 125.73 49.5987 126.232 50.604C126.774 51.5707 127.528 52.344 128.494 52.924C129.5 53.4653 130.621 53.736 131.858 53.736C133.096 53.736 134.198 53.4653 135.164 52.924C136.131 52.344 136.885 51.5513 137.426 50.546C137.968 49.5407 138.238 48.342 138.238 46.95V28.448H145.836V60H138.644V53.794L139.282 54.896C138.548 56.8293 137.33 58.2793 135.628 59.246C133.966 60.2127 132.013 60.696 129.77 60.696ZM152.899 60V28.448H160.033V35.466L159.453 34.422C160.188 32.0633 161.329 30.42 162.875 29.492C164.461 28.564 166.355 28.1 168.559 28.1H170.415V34.828H167.689C165.524 34.828 163.784 35.5047 162.469 36.858C161.155 38.1727 160.497 40.0287 160.497 42.426V60H152.899ZM174.593 60V28.448H181.727V34.654L181.147 33.552C181.881 31.6573 183.08 30.2267 184.743 29.26C186.444 28.2547 188.416 27.752 190.659 27.752C192.979 27.752 195.028 28.2547 196.807 29.26C198.624 30.2653 200.035 31.6767 201.041 33.494C202.046 35.2727 202.549 37.3413 202.549 39.7V60H194.951V41.498C194.951 40.106 194.68 38.9073 194.139 37.902C193.597 36.8967 192.843 36.1233 191.877 35.582C190.949 35.002 189.847 34.712 188.571 34.712C187.333 34.712 186.231 35.002 185.265 35.582C184.298 36.1233 183.544 36.8967 183.003 37.902C182.461 38.9073 182.191 40.106 182.191 41.498V60H174.593Z" fill="url(#paint0_linear_17_4)"/>
<path d="M221.514 60V19.4H209.276V16.79H236.536V19.4H224.414V60H221.514ZM252.913 60.696C250.013 60.696 247.403 60 245.083 58.608C242.763 57.216 240.926 55.3213 239.573 52.924C238.22 50.488 237.543 47.762 237.543 44.746C237.543 41.6913 238.22 38.9653 239.573 36.568C240.926 34.1707 242.763 32.276 245.083 30.884C247.403 29.492 250.013 28.796 252.913 28.796C255.852 28.796 258.462 29.492 260.743 30.884C263.063 32.276 264.9 34.1707 266.253 36.568C267.606 38.9653 268.283 41.6913 268.283 44.746C268.283 47.762 267.606 50.488 266.253 52.924C264.9 55.3213 263.063 57.216 260.743 58.608C258.462 60 255.852 60.696 252.913 60.696ZM252.913 58.202C255.272 58.202 257.398 57.622 259.293 56.462C261.188 55.2633 262.696 53.6393 263.817 51.59C264.938 49.5407 265.499 47.2593 265.499 44.746C265.499 42.194 264.938 39.9127 263.817 37.902C262.734 35.8527 261.246 34.248 259.351 33.088C257.456 31.8893 255.31 31.29 252.913 31.29C250.554 31.29 248.408 31.8893 246.475 33.088C244.58 34.248 243.072 35.8527 241.951 37.902C240.868 39.9127 240.327 42.194 240.327 44.746C240.327 47.2593 240.888 49.5407 242.009 51.59C243.13 53.6393 244.638 55.2633 246.533 56.462C248.428 57.622 250.554 58.202 252.913 58.202ZM276.249 72.76C275.785 72.76 275.243 72.7213 274.625 72.644C274.006 72.5667 273.407 72.4313 272.827 72.238V69.86C273.368 70.0147 273.929 70.1113 274.509 70.15C275.127 70.2273 275.649 70.266 276.075 70.266C277.969 70.2273 279.477 69.7053 280.599 68.7C281.759 67.7333 282.745 66.3027 283.557 64.408L285.993 58.724L286.109 61.392L273.175 29.492H276.133L287.791 58.26H286.167L297.941 29.492H300.957L286.341 64.698C285.915 65.742 285.277 66.8827 284.427 68.12C283.615 69.396 282.532 70.4787 281.179 71.368C279.864 72.296 278.221 72.76 276.249 72.76ZM317.33 60.696C314.623 60.696 312.226 60.0387 310.138 58.724C308.05 57.3707 306.484 55.5147 305.44 53.156L307.876 52.054C308.881 53.9873 310.196 55.4953 311.82 56.578C313.483 57.6607 315.319 58.202 317.33 58.202C319.495 58.202 321.313 57.6607 322.782 56.578C324.29 55.4953 325.044 54.0647 325.044 52.286C325.044 51.358 324.831 50.5267 324.406 49.792C323.981 49.0573 323.343 48.4193 322.492 47.878C321.68 47.298 320.675 46.8533 319.476 46.544L314.43 45.152C311.955 44.4947 310.099 43.4893 308.862 42.136C307.625 40.744 307.006 39.062 307.006 37.09C307.006 35.466 307.412 34.0353 308.224 32.798C309.075 31.522 310.215 30.536 311.646 29.84C313.077 29.144 314.662 28.796 316.402 28.796C318.877 28.796 321.119 29.434 323.13 30.71C325.179 31.9473 326.591 33.5907 327.364 35.64L324.812 36.8C323.961 35.06 322.801 33.7067 321.332 32.74C319.863 31.7733 318.219 31.29 316.402 31.29C314.469 31.29 312.864 31.8313 311.588 32.914C310.312 33.9967 309.674 35.3693 309.674 37.032C309.674 37.8827 309.867 38.656 310.254 39.352C310.641 40.0093 311.221 40.5893 311.994 41.092C312.767 41.5947 313.715 42.0007 314.836 42.31L319.94 43.76C322.453 44.456 324.387 45.5387 325.74 47.008C327.093 48.4387 327.77 50.1593 327.77 52.17C327.77 53.794 327.306 55.2633 326.378 56.578C325.45 57.854 324.193 58.8593 322.608 59.594C321.061 60.3287 319.302 60.696 317.33 60.696Z" fill="white"/>
<defs>
<linearGradient id="paint0_linear_17_4" x1="8.66486e-07" y1="36" x2="206" y2="36" gradientUnits="userSpaceOnUse">
<stop stop-color="#FF0000"/>
<stop offset="1" stop-color="#FF007A"/>
</linearGradient>
</defs>
</svg>
