<svg width="99" height="33" viewBox="0 0 99 33" fill="none" xmlns="http://www.w3.org/2000/svg">
<path d="M46.6429 27V9.72001H41.2969V6.88501H55.0669V9.72001H49.8019V27H46.6429Z" fill="#ECFF8C"/>
<path d="M62.3006 27.324C60.8966 27.324 59.6096 26.991 58.4396 26.325C57.2876 25.659 56.3696 24.75 55.6856 23.598C55.0016 22.446 54.6596 21.141 54.6596 19.683C54.6596 18.207 55.0016 16.902 55.6856 15.768C56.3696 14.616 57.2876 13.716 58.4396 13.068C59.5916 12.402 60.8786 12.069 62.3006 12.069C63.7406 12.069 65.0276 12.402 66.1616 13.068C67.3136 13.716 68.2226 14.616 68.8886 15.768C69.5726 16.902 69.9146 18.207 69.9146 19.683C69.9146 21.159 69.5726 22.473 68.8886 23.625C68.2046 24.777 67.2866 25.686 66.1346 26.352C64.9826 27 63.7046 27.324 62.3006 27.324ZM62.3006 24.489C63.1646 24.489 63.9296 24.282 64.5956 23.868C65.2616 23.454 65.7836 22.887 66.1616 22.167C66.5576 21.429 66.7556 20.601 66.7556 19.683C66.7556 18.765 66.5576 17.946 66.1616 17.226C65.7836 16.506 65.2616 15.939 64.5956 15.525C63.9296 15.111 63.1646 14.904 62.3006 14.904C61.4546 14.904 60.6896 15.111 60.0056 15.525C59.3396 15.939 58.8086 16.506 58.4126 17.226C58.0346 17.946 57.8456 18.765 57.8456 19.683C57.8456 20.601 58.0346 21.429 58.4126 22.167C58.8086 22.887 59.3396 23.454 60.0056 23.868C60.6896 24.282 61.4546 24.489 62.3006 24.489Z" fill="#ECFF8C"/>
<path d="M73.9255 32.967C73.5655 32.967 73.2055 32.931 72.8455 32.859C72.5035 32.805 72.1885 32.715 71.9005 32.589V29.97C72.1165 30.024 72.3775 30.069 72.6835 30.105C72.9895 30.159 73.2865 30.186 73.5745 30.186C74.4205 30.186 75.0415 29.997 75.4375 29.619C75.8515 29.259 76.2205 28.692 76.5445 27.918L77.5165 25.704L77.4625 28.269L71.1445 12.393H74.4115L79.0825 24.57H77.9755L82.6195 12.393H85.9135L79.4605 28.593C79.1185 29.457 78.6865 30.213 78.1645 30.861C77.6605 31.527 77.0575 32.04 76.3555 32.4C75.6715 32.778 74.8615 32.967 73.9255 32.967Z" fill="#ECFF8C"/>
<path d="M93.4016 27.324C91.9076 27.324 90.5936 26.955 89.4596 26.217C88.3436 25.479 87.5606 24.489 87.1106 23.247L89.4596 22.14C89.8556 22.968 90.3956 23.625 91.0796 24.111C91.7816 24.597 92.5556 24.84 93.4016 24.84C94.1216 24.84 94.7066 24.678 95.1566 24.354C95.6066 24.03 95.8316 23.589 95.8316 23.031C95.8316 22.671 95.7326 22.383 95.5346 22.167C95.3366 21.933 95.0846 21.744 94.7786 21.6C94.4906 21.456 94.1936 21.348 93.8876 21.276L91.5926 20.628C90.3326 20.268 89.3876 19.728 88.7576 19.008C88.1456 18.27 87.8396 17.415 87.8396 16.443C87.8396 15.561 88.0646 14.796 88.5146 14.148C88.9646 13.482 89.5856 12.969 90.3776 12.609C91.1696 12.249 92.0606 12.069 93.0506 12.069C94.3826 12.069 95.5706 12.402 96.6146 13.068C97.6586 13.716 98.3966 14.625 98.8286 15.795L96.4796 16.902C96.1916 16.2 95.7326 15.642 95.1026 15.228C94.4906 14.814 93.7976 14.607 93.0236 14.607C92.3576 14.607 91.8266 14.769 91.4306 15.093C91.0346 15.399 90.8366 15.804 90.8366 16.308C90.8366 16.65 90.9266 16.938 91.1066 17.172C91.2866 17.388 91.5206 17.568 91.8086 17.712C92.0966 17.838 92.3936 17.946 92.6996 18.036L95.0756 18.738C96.2816 19.08 97.2086 19.62 97.8566 20.358C98.5046 21.078 98.8286 21.942 98.8286 22.95C98.8286 23.814 98.5946 24.579 98.1266 25.245C97.6766 25.893 97.0466 26.406 96.2366 26.784C95.4266 27.144 94.4816 27.324 93.4016 27.324Z" fill="#ECFF8C"/>
<path opacity="0.987" fill-rule="evenodd" clip-rule="evenodd" d="M18.2632 0C18.7193 0 19.1754 0 19.6316 0C20.5087 0.246267 20.8332 0.82707 20.6053 1.7424C19.6617 6.31594 21.1968 9.7567 25.2105 12.0648C26.2801 12.6188 27.3327 13.1996 28.3684 13.8072C29.4486 14.4331 30.2293 15.3219 30.7105 16.4736C30.8313 16.8439 30.9278 17.2135 31 17.5824C31 18.1456 31 18.7088 31 19.272C30.7123 20.9773 30.1246 22.5789 29.2368 24.0768C26.7814 28.0855 23.3341 30.8575 18.8947 32.3928C18.2224 32.5998 17.5382 32.7495 16.8421 32.8416C16.8421 32.824 16.8421 32.8064 16.8421 32.7888C19.8599 31.8471 21.9389 29.8935 23.0789 26.928C23.2968 26.1749 23.3144 25.4181 23.1316 24.6576C22.9054 24.149 22.5633 23.7354 22.1053 23.4168C21.5258 23.0556 20.9293 22.7212 20.3158 22.4136C19.0091 21.6837 18.2108 20.5837 17.9211 19.1136C17.9066 18.3008 17.9417 17.4912 18.0263 16.6848C17.8516 16.409 17.5973 16.2858 17.2632 16.3152C16.0296 16.485 14.8717 16.881 13.7895 17.5032C11.7873 18.5788 10.1294 20.0484 8.81579 21.912C7.36484 24.348 7.38237 26.7768 8.86842 29.1984C10.22 31.3733 12.1586 32.6405 14.6842 33C14.4035 33 14.1228 33 13.8421 33C10.6589 32.6703 7.86942 31.4471 5.47368 29.3304C2.44104 26.5986 0.616474 23.2106 0 19.1664C0 18.4624 0 17.7584 0 17.0544C0.234483 15.0553 0.874832 13.1897 1.92105 11.4576C3.45137 9.04179 5.35489 6.95619 7.63158 5.2008C10.1383 3.24763 12.8927 1.71643 15.8947 0.6072C16.6762 0.345245 17.4657 0.142846 18.2632 0ZM16.7895 3.96C16.8305 8.15206 18.5147 11.5049 21.8421 14.0184C22.3419 14.3659 22.8506 14.7003 23.3684 15.0216C24.3768 15.5538 25.3768 16.0994 26.3684 16.6584C26.7418 16.8747 27.0664 17.1475 27.3421 17.4768C27.4891 17.7752 27.5681 18.092 27.5789 18.4272C27.4011 19.9628 26.8835 21.3708 26.0263 22.6512C25.5785 21.8682 24.9908 21.2082 24.2632 20.6712C23.4995 20.1736 22.71 19.716 21.8947 19.2984C21.5576 19.1279 21.3822 18.8551 21.3684 18.48C21.5546 17.6005 21.5634 16.7204 21.3947 15.84C20.7279 13.88 19.3507 12.8768 17.2632 12.8304C16.0583 12.9038 14.9004 13.1766 13.7895 13.6488C10.8623 14.8744 8.41489 16.7313 6.44737 19.2192C5.67247 20.2633 5.076 21.4073 4.65789 22.6512C2.93623 19.376 3.05904 16.1728 5.02632 13.0416C6.33774 11.057 7.943 9.34095 9.84211 7.8936C11.9751 6.269 14.2908 4.95779 16.7895 3.96Z" fill="#ECFF8C"/>
</svg>
