<svg width="81" height="23" viewBox="0 0 81 23" fill="none" xmlns="http://www.w3.org/2000/svg">
<path d="M37.4603 17.9669V3.3913H33V1H44.4886V3.3913H40.0959V17.9669H37.4603Z" fill="#EAFD8A"/>
<path d="M50.5238 18.2402C49.3525 18.2402 48.2787 17.9593 47.3025 17.3975C46.3414 16.8357 45.5755 16.069 45.0048 15.0973C44.4341 14.1256 44.1488 13.0248 44.1488 11.795C44.1488 10.55 44.4341 9.44928 45.0048 8.49275C45.5755 7.52105 46.3414 6.76191 47.3025 6.21532C48.2637 5.65355 49.3374 5.37267 50.5238 5.37267C51.7253 5.37267 52.799 5.65355 53.7452 6.21532C54.7063 6.76191 55.4647 7.52105 56.0204 8.49275C56.591 9.44928 56.8764 10.55 56.8764 11.795C56.8764 13.04 56.591 14.1484 56.0204 15.1201C55.4497 16.0918 54.6838 16.8585 53.7226 17.4203C52.7615 17.9669 51.6952 18.2402 50.5238 18.2402ZM50.5238 15.8489C51.2447 15.8489 51.883 15.6743 52.4386 15.3251C52.9943 14.9758 53.4298 14.4976 53.7452 13.8903C54.0755 13.2678 54.2407 12.5694 54.2407 11.795C54.2407 11.0207 54.0755 10.3299 53.7452 9.72257C53.4298 9.11525 52.9943 8.63699 52.4386 8.28779C51.883 7.93858 51.2447 7.76398 50.5238 7.76398C49.818 7.76398 49.1797 7.93858 48.6091 8.28779C48.0534 8.63699 47.6104 9.11525 47.28 9.72257C46.9646 10.3299 46.8069 11.0207 46.8069 11.795C46.8069 12.5694 46.9646 13.2678 47.28 13.8903C47.6104 14.4976 48.0534 14.9758 48.6091 15.3251C49.1797 15.6743 49.818 15.8489 50.5238 15.8489Z" fill="#EAFD8A"/>
<path d="M60.2228 23C59.9225 23 59.6221 22.9696 59.3217 22.9089C59.0364 22.8634 58.7736 22.7874 58.5333 22.6812V20.472C58.7135 20.5176 58.9313 20.5556 59.1866 20.5859C59.4419 20.6315 59.6897 20.6542 59.93 20.6542C60.6358 20.6542 61.1539 20.4948 61.4843 20.176C61.8297 19.8723 62.1376 19.3941 62.4079 18.7412L63.2189 16.8737L63.1738 19.0373L57.9026 5.64596H60.6283L64.5254 15.9172H63.6018L67.4764 5.64596H70.2247L64.8408 19.3106C64.5555 20.0393 64.195 20.677 63.7595 21.2236C63.339 21.7854 62.8359 22.2181 62.2502 22.5217C61.6795 22.8406 61.0037 23 60.2228 23Z" fill="#EAFD8A"/>
<path d="M76.4721 18.2402C75.2257 18.2402 74.1294 17.9289 73.1832 17.3064C72.2521 16.6839 71.5989 15.8489 71.2234 14.8012L73.1832 13.8675C73.5136 14.5659 73.9642 15.1201 74.5348 15.53C75.1205 15.94 75.7663 16.1449 76.4721 16.1449C77.0728 16.1449 77.5609 16.0083 77.9364 15.735C78.3118 15.4617 78.4995 15.0897 78.4995 14.619C78.4995 14.3154 78.4169 14.0725 78.2517 13.8903C78.0865 13.6929 77.8763 13.5335 77.621 13.412C77.3807 13.2905 77.1329 13.1994 76.8776 13.1387L74.9628 12.5921C73.9116 12.2885 73.1232 11.833 72.5975 11.2257C72.0869 10.6032 71.8316 9.88199 71.8316 9.06211C71.8316 8.31815 72.0194 7.67288 72.3948 7.12629C72.7702 6.56453 73.2884 6.13182 73.9491 5.82816C74.6099 5.5245 75.3533 5.37267 76.1793 5.37267C77.2906 5.37267 78.2818 5.65355 79.1528 6.21532C80.0238 6.76191 80.6396 7.52864 81 8.51553L79.0402 9.44928C78.7999 8.85714 78.4169 8.38647 77.8913 8.03727C77.3807 7.68806 76.8025 7.51346 76.1568 7.51346C75.6011 7.51346 75.1581 7.6501 74.8277 7.9234C74.4973 8.1815 74.3321 8.52312 74.3321 8.94824C74.3321 9.23672 74.4072 9.47964 74.5574 9.67702C74.7075 9.85921 74.9028 10.011 75.1431 10.1325C75.3833 10.2388 75.6311 10.3299 75.8864 10.4058L77.8688 10.9979C78.875 11.2864 79.6484 11.7419 80.189 12.3644C80.7297 12.9717 81 13.7005 81 14.5507C81 15.2795 80.8048 15.9248 80.4143 16.4865C80.0389 17.0331 79.5132 17.4658 78.8374 17.7847C78.1616 18.0883 77.3732 18.2402 76.4721 18.2402Z" fill="#EAFD8A"/>
<path d="M12.0476 0H23V12.2667C23 12.8467 22.9098 13.4057 22.7427 13.9304C22.0385 16.1414 19.9682 17.7429 17.5238 17.7429C14.4994 17.7429 12.0476 15.2911 12.0476 12.2667V0Z" fill="#EAFD8A"/>
<path fill-rule="evenodd" clip-rule="evenodd" d="M9.2 0H0V11.5C0 17.8513 5.14873 23 11.5 23C14.1973 23 16.6777 22.0714 18.639 20.5164C18.2742 20.5653 17.9019 20.5905 17.5238 20.5905C12.9267 20.5905 9.2 16.8638 9.2 12.2667V0ZM23 0H12.0476V12.2667C12.0476 15.2911 14.4994 17.7429 17.5238 17.7429C19.9682 17.7429 22.0385 16.1414 22.7427 13.9304C22.9098 13.4057 23 12.8467 23 12.2667V11.5V0Z" fill="#EAFD8A"/>
</svg>
