<svg width="613" height="194" viewBox="0 0 613 194" fill="none" xmlns="http://www.w3.org/2000/svg">
<path opacity="0.15" d="M102.094 159V117.28H118.11C120.985 117.28 123.524 117.784 125.726 118.792C127.966 119.8 129.721 121.293 130.99 123.272C132.26 125.251 132.894 127.696 132.894 130.608C132.894 133.445 132.241 135.853 130.934 137.832C129.665 139.811 127.91 141.323 125.67 142.368C123.468 143.376 120.948 143.88 118.11 143.88H110.774V159H102.094ZM110.774 136.32H118.166C119.398 136.32 120.462 136.077 121.358 135.592C122.254 135.107 122.945 134.435 123.43 133.576C123.953 132.717 124.214 131.728 124.214 130.608C124.214 129.451 123.953 128.443 123.43 127.584C122.945 126.725 122.254 126.053 121.358 125.568C120.462 125.083 119.398 124.84 118.166 124.84H110.774V136.32ZM132.046 159L146.158 117.28H157.694L171.806 159H162.342L159.542 150.488H144.254L141.454 159H132.046ZM146.662 142.928H157.134L150.75 123.216H153.102L146.662 142.928ZM176.141 159V117.28H192.101C194.976 117.28 197.515 117.784 199.717 118.792C201.957 119.8 203.712 121.293 204.981 123.272C206.251 125.251 206.885 127.696 206.885 130.608C206.885 133.445 206.232 135.872 204.925 137.888C203.619 139.867 201.864 141.36 199.661 142.368L209.181 159H199.437L189.133 140.576L194.733 143.88H184.821V159H176.141ZM184.821 136.32H192.157C193.389 136.32 194.453 136.077 195.349 135.592C196.245 135.107 196.936 134.435 197.421 133.576C197.944 132.717 198.205 131.728 198.205 130.608C198.205 129.451 197.944 128.443 197.421 127.584C196.936 126.725 196.245 126.053 195.349 125.568C194.453 125.083 193.389 124.84 192.157 124.84H184.821V136.32ZM210.413 159L224.525 117.28H236.061L250.173 159H240.709L237.909 150.488H222.621L219.821 159H210.413ZM225.029 142.928H235.501L229.117 123.216H231.469L225.029 142.928ZM254.508 159V117.28H270.525C273.399 117.28 275.938 117.784 278.141 118.792C280.381 119.8 282.135 121.293 283.405 123.272C284.674 125.251 285.309 127.696 285.309 130.608C285.309 133.445 284.655 135.853 283.349 137.832C282.079 139.811 280.325 141.323 278.085 142.368C275.882 143.376 273.362 143.88 270.525 143.88H263.189V159H254.508ZM263.189 136.32H270.581C271.813 136.32 272.877 136.077 273.773 135.592C274.669 135.107 275.359 134.435 275.845 133.576C276.367 132.717 276.629 131.728 276.629 130.608C276.629 129.451 276.367 128.443 275.845 127.584C275.359 126.725 274.669 126.053 273.773 125.568C272.877 125.083 271.813 124.84 270.581 124.84H263.189V136.32ZM290.876 159V117.28H299.556V135.312H315.796V117.28H324.476V159H315.796V142.872H299.556V159H290.876ZM331.891 159V117.28H347.851C350.726 117.28 353.265 117.784 355.467 118.792C357.707 119.8 359.462 121.293 360.731 123.272C362.001 125.251 362.635 127.696 362.635 130.608C362.635 133.445 361.982 135.872 360.675 137.888C359.369 139.867 357.614 141.36 355.411 142.368L364.931 159H355.187L344.883 140.576L350.483 143.88H340.571V159H331.891ZM340.571 136.32H347.907C349.139 136.32 350.203 136.077 351.099 135.592C351.995 135.107 352.686 134.435 353.171 133.576C353.694 132.717 353.955 131.728 353.955 130.608C353.955 129.451 353.694 128.443 353.171 127.584C352.686 126.725 351.995 126.053 351.099 125.568C350.203 125.083 349.139 124.84 347.907 124.84H340.571V136.32ZM366.163 159L380.275 117.28H391.811L405.923 159H396.459L393.659 150.488H378.371L375.571 159H366.163ZM380.779 142.928H391.251L384.867 123.216H387.219L380.779 142.928ZM424.888 159.672C422.274 159.672 419.81 159.205 417.496 158.272C415.218 157.301 413.24 155.939 411.56 154.184C409.917 152.429 408.685 150.357 407.864 147.968L414.976 144.776C416.021 147.053 417.458 148.845 419.288 150.152C421.154 151.459 423.208 152.112 425.448 152.112C426.642 152.112 427.669 151.925 428.528 151.552C429.386 151.179 430.058 150.675 430.544 150.04C431.029 149.368 431.272 148.584 431.272 147.688C431.272 146.717 430.973 145.896 430.376 145.224C429.778 144.515 428.845 143.955 427.576 143.544L419.4 140.856C416.077 139.773 413.576 138.243 411.896 136.264C410.216 134.248 409.376 131.84 409.376 129.04C409.376 126.576 409.973 124.411 411.168 122.544C412.4 120.677 414.098 119.221 416.264 118.176C418.466 117.131 420.986 116.608 423.824 116.608C426.325 116.608 428.64 117.037 430.768 117.896C432.896 118.755 434.725 119.968 436.256 121.536C437.824 123.104 439 124.989 439.784 127.192L432.728 130.384C431.944 128.443 430.768 126.931 429.2 125.848C427.632 124.728 425.84 124.168 423.824 124.168C422.666 124.168 421.64 124.355 420.744 124.728C419.848 125.101 419.157 125.643 418.672 126.352C418.186 127.024 417.944 127.808 417.944 128.704C417.944 129.675 418.261 130.533 418.896 131.28C419.53 131.989 420.482 132.549 421.752 132.96L429.76 135.536C433.12 136.619 435.621 138.131 437.264 140.072C438.944 142.013 439.784 144.384 439.784 147.184C439.784 149.611 439.149 151.776 437.88 153.68C436.61 155.547 434.856 157.021 432.616 158.104C430.413 159.149 427.837 159.672 424.888 159.672ZM445.969 159V117.28H474.025V124.84H454.649V134.304H472.905V141.864H454.649V151.44H474.025V159H445.969ZM478.946 159V117.28H494.906C497.781 117.28 500.319 117.784 502.522 118.792C504.762 119.8 506.517 121.293 507.786 123.272C509.055 125.251 509.69 127.696 509.69 130.608C509.69 133.445 509.037 135.872 507.73 137.888C506.423 139.867 504.669 141.36 502.466 142.368L511.986 159H502.242L491.938 140.576L497.538 143.88H487.626V159H478.946ZM487.626 136.32H494.962C496.194 136.32 497.258 136.077 498.154 135.592C499.05 135.107 499.741 134.435 500.226 133.576C500.749 132.717 501.01 131.728 501.01 130.608C501.01 129.451 500.749 128.443 500.226 127.584C499.741 126.725 499.05 126.053 498.154 125.568C497.258 125.083 496.194 124.84 494.962 124.84H487.626V136.32Z" fill="white"/>
<path opacity="0.15" d="M103.094 75V33.28H119.11C121.985 33.28 124.524 33.784 126.726 34.792C128.966 35.8 130.721 37.2933 131.99 39.272C133.26 41.2507 133.894 43.696 133.894 46.608C133.894 49.4453 133.241 51.8533 131.934 53.832C130.665 55.8107 128.91 57.3227 126.67 58.368C124.468 59.376 121.948 59.88 119.11 59.88H111.774V75H103.094ZM111.774 52.32H119.166C120.398 52.32 121.462 52.0773 122.358 51.592C123.254 51.1067 123.945 50.4347 124.43 49.576C124.953 48.7173 125.214 47.728 125.214 46.608C125.214 45.4507 124.953 44.4427 124.43 43.584C123.945 42.7253 123.254 42.0533 122.358 41.568C121.462 41.0827 120.398 40.84 119.166 40.84H111.774V52.32ZM133.046 75L147.158 33.28H158.694L172.806 75H163.342L160.542 66.488H145.254L142.454 75H133.046ZM147.662 58.928H158.134L151.75 39.216H154.102L147.662 58.928ZM177.141 75V33.28H193.101C195.976 33.28 198.515 33.784 200.717 34.792C202.957 35.8 204.712 37.2933 205.981 39.272C207.251 41.2507 207.885 43.696 207.885 46.608C207.885 49.4453 207.232 51.872 205.925 53.888C204.619 55.8667 202.864 57.36 200.661 58.368L210.181 75H200.437L190.133 56.576L195.733 59.88H185.821V75H177.141ZM185.821 52.32H193.157C194.389 52.32 195.453 52.0773 196.349 51.592C197.245 51.1067 197.936 50.4347 198.421 49.576C198.944 48.7173 199.205 47.728 199.205 46.608C199.205 45.4507 198.944 44.4427 198.421 43.584C197.936 42.7253 197.245 42.0533 196.349 41.568C195.453 41.0827 194.389 40.84 193.157 40.84H185.821V52.32ZM211.413 75L225.525 33.28H237.061L251.173 75H241.709L238.909 66.488H223.621L220.821 75H211.413ZM226.029 58.928H236.501L230.117 39.216H232.469L226.029 58.928ZM255.508 75V33.28H271.525C274.399 33.28 276.938 33.784 279.141 34.792C281.381 35.8 283.135 37.2933 284.405 39.272C285.674 41.2507 286.309 43.696 286.309 46.608C286.309 49.4453 285.655 51.8533 284.349 53.832C283.079 55.8107 281.325 57.3227 279.085 58.368C276.882 59.376 274.362 59.88 271.525 59.88H264.189V75H255.508ZM264.189 52.32H271.581C272.813 52.32 273.877 52.0773 274.773 51.592C275.669 51.1067 276.359 50.4347 276.845 49.576C277.367 48.7173 277.629 47.728 277.629 46.608C277.629 45.4507 277.367 44.4427 276.845 43.584C276.359 42.7253 275.669 42.0533 274.773 41.568C273.877 41.0827 272.813 40.84 271.581 40.84H264.189V52.32ZM291.876 75V33.28H300.556V51.312H316.796V33.28H325.476V75H316.796V58.872H300.556V75H291.876ZM332.891 75V33.28H348.851C351.726 33.28 354.265 33.784 356.467 34.792C358.707 35.8 360.462 37.2933 361.731 39.272C363.001 41.2507 363.635 43.696 363.635 46.608C363.635 49.4453 362.982 51.872 361.675 53.888C360.369 55.8667 358.614 57.36 356.411 58.368L365.931 75H356.187L345.883 56.576L351.483 59.88H341.571V75H332.891ZM341.571 52.32H348.907C350.139 52.32 351.203 52.0773 352.099 51.592C352.995 51.1067 353.686 50.4347 354.171 49.576C354.694 48.7173 354.955 47.728 354.955 46.608C354.955 45.4507 354.694 44.4427 354.171 43.584C353.686 42.7253 352.995 42.0533 352.099 41.568C351.203 41.0827 350.139 40.84 348.907 40.84H341.571V52.32ZM367.163 75L381.275 33.28H392.811L406.923 75H397.459L394.659 66.488H379.371L376.571 75H367.163ZM381.779 58.928H392.251L385.867 39.216H388.219L381.779 58.928ZM425.888 75.672C423.274 75.672 420.81 75.2053 418.496 74.272C416.218 73.3013 414.24 71.9387 412.56 70.184C410.917 68.4293 409.685 66.3573 408.864 63.968L415.976 60.776C417.021 63.0533 418.458 64.8453 420.288 66.152C422.154 67.4587 424.208 68.112 426.448 68.112C427.642 68.112 428.669 67.9253 429.528 67.552C430.386 67.1787 431.058 66.6747 431.544 66.04C432.029 65.368 432.272 64.584 432.272 63.688C432.272 62.7173 431.973 61.896 431.376 61.224C430.778 60.5147 429.845 59.9547 428.576 59.544L420.4 56.856C417.077 55.7733 414.576 54.2427 412.896 52.264C411.216 50.248 410.376 47.84 410.376 45.04C410.376 42.576 410.973 40.4107 412.168 38.544C413.4 36.6773 415.098 35.2213 417.264 34.176C419.466 33.1307 421.986 32.608 424.824 32.608C427.325 32.608 429.64 33.0373 431.768 33.896C433.896 34.7547 435.725 35.968 437.256 37.536C438.824 39.104 440 40.9893 440.784 43.192L433.728 46.384C432.944 44.4427 431.768 42.9307 430.2 41.848C428.632 40.728 426.84 40.168 424.824 40.168C423.666 40.168 422.64 40.3547 421.744 40.728C420.848 41.1013 420.157 41.6427 419.672 42.352C419.186 43.024 418.944 43.808 418.944 44.704C418.944 45.6747 419.261 46.5333 419.896 47.28C420.53 47.9893 421.482 48.5493 422.752 48.96L430.76 51.536C434.12 52.6187 436.621 54.1307 438.264 56.072C439.944 58.0133 440.784 60.384 440.784 63.184C440.784 65.6107 440.149 67.776 438.88 69.68C437.61 71.5467 435.856 73.0213 433.616 74.104C431.413 75.1493 428.837 75.672 425.888 75.672ZM446.969 75V33.28H475.025V40.84H455.649V50.304H473.905V57.864H455.649V67.44H475.025V75H446.969ZM479.946 75V33.28H495.906C498.781 33.28 501.319 33.784 503.522 34.792C505.762 35.8 507.517 37.2933 508.786 39.272C510.055 41.2507 510.69 43.696 510.69 46.608C510.69 49.4453 510.037 51.872 508.73 53.888C507.423 55.8667 505.669 57.36 503.466 58.368L512.986 75H503.242L492.938 56.576L498.538 59.88H488.626V75H479.946ZM488.626 52.32H495.962C497.194 52.32 498.258 52.0773 499.154 51.592C500.05 51.1067 500.741 50.4347 501.226 49.576C501.749 48.7173 502.01 47.728 502.01 46.608C502.01 45.4507 501.749 44.4427 501.226 43.584C500.741 42.7253 500.05 42.0533 499.154 41.568C498.258 41.0827 497.194 40.84 495.962 40.84H488.626V52.32Z" fill="white"/>
<g filter="url(#filter0_d_219_12)">
<path d="M72.5365 121V73.32H90.8405C94.1258 73.32 97.0272 73.896 99.5445 75.048C102.105 76.2 104.11 77.9067 105.561 80.168C107.011 82.4293 107.737 85.224 107.737 88.552C107.737 91.7947 106.99 94.5467 105.497 96.808C104.046 99.0693 102.041 100.797 99.4805 101.992C96.9632 103.144 94.0832 103.72 90.8405 103.72H82.4565V121H72.5365ZM82.4565 95.08H90.9045C92.3125 95.08 93.5285 94.8027 94.5525 94.248C95.5765 93.6933 96.3658 92.9253 96.9205 91.944C97.5178 90.9627 97.8165 89.832 97.8165 88.552C97.8165 87.2293 97.5178 86.0773 96.9205 85.096C96.3658 84.1147 95.5765 83.3467 94.5525 82.792C93.5285 82.2373 92.3125 81.96 90.9045 81.96H82.4565V95.08ZM106.767 121L122.895 73.32H136.079L152.207 121H141.391L138.191 111.272H120.719L117.519 121H106.767ZM123.471 102.632H135.439L128.143 80.104H130.831L123.471 102.632ZM157.161 121V73.32H175.402C178.687 73.32 181.588 73.896 184.106 75.048C186.666 76.2 188.671 77.9067 190.122 80.168C191.572 82.4293 192.298 85.224 192.298 88.552C192.298 91.7947 191.551 94.568 190.058 96.872C188.564 99.1333 186.559 100.84 184.042 101.992L194.922 121H183.786L172.01 99.944L178.41 103.72H167.082V121H157.161ZM167.082 95.08H175.466C176.874 95.08 178.09 94.8027 179.114 94.248C180.138 93.6933 180.927 92.9253 181.482 91.944C182.079 90.9627 182.378 89.832 182.378 88.552C182.378 87.2293 182.079 86.0773 181.482 85.096C180.927 84.1147 180.138 83.3467 179.114 82.792C178.09 82.2373 176.874 81.96 175.466 81.96H167.082V95.08ZM196.329 121L212.457 73.32H225.641L241.769 121H230.953L227.753 111.272H210.281L207.081 121H196.329ZM213.033 102.632H225.001L217.705 80.104H220.393L213.033 102.632ZM246.724 121V73.32H265.028C268.313 73.32 271.215 73.896 273.732 75.048C276.292 76.2 278.297 77.9067 279.748 80.168C281.199 82.4293 281.924 85.224 281.924 88.552C281.924 91.7947 281.177 94.5467 279.684 96.808C278.233 99.0693 276.228 100.797 273.668 101.992C271.151 103.144 268.271 103.72 265.028 103.72H256.644V121H246.724ZM256.644 95.08H265.092C266.5 95.08 267.716 94.8027 268.74 94.248C269.764 93.6933 270.553 92.9253 271.108 91.944C271.705 90.9627 272.004 89.832 272.004 88.552C272.004 87.2293 271.705 86.0773 271.108 85.096C270.553 84.1147 269.764 83.3467 268.74 82.792C267.716 82.2373 266.5 81.96 265.092 81.96H256.644V95.08ZM288.286 121V73.32H298.207V93.928H316.767V73.32H326.687V121H316.767V102.568H298.207V121H288.286ZM335.161 121V73.32H353.402C356.687 73.32 359.588 73.896 362.106 75.048C364.666 76.2 366.671 77.9067 368.122 80.168C369.572 82.4293 370.298 85.224 370.298 88.552C370.298 91.7947 369.551 94.568 368.058 96.872C366.564 99.1333 364.559 100.84 362.042 101.992L372.922 121H361.786L350.01 99.944L356.41 103.72H345.082V121H335.161ZM345.082 95.08H353.466C354.874 95.08 356.09 94.8027 357.114 94.248C358.138 93.6933 358.927 92.9253 359.482 91.944C360.079 90.9627 360.378 89.832 360.378 88.552C360.378 87.2293 360.079 86.0773 359.482 85.096C358.927 84.1147 358.138 83.3467 357.114 82.792C356.09 82.2373 354.874 81.96 353.466 81.96H345.082V95.08ZM374.329 121L390.457 73.32H403.641L419.769 121H408.953L405.753 111.272H388.281L385.081 121H374.329ZM391.033 102.632H403.001L395.705 80.104H398.393L391.033 102.632ZM441.443 121.768C438.456 121.768 435.64 121.235 432.995 120.168C430.392 119.059 428.131 117.501 426.211 115.496C424.334 113.491 422.926 111.123 421.987 108.392L430.115 104.744C431.31 107.347 432.952 109.395 435.043 110.888C437.176 112.381 439.523 113.128 442.083 113.128C443.448 113.128 444.622 112.915 445.603 112.488C446.584 112.061 447.352 111.485 447.907 110.76C448.462 109.992 448.739 109.096 448.739 108.072C448.739 106.963 448.398 106.024 447.715 105.256C447.032 104.445 445.966 103.805 444.515 103.336L435.171 100.264C431.374 99.0267 428.515 97.2773 426.595 95.016C424.675 92.712 423.715 89.96 423.715 86.76C423.715 83.944 424.398 81.4693 425.763 79.336C427.171 77.2027 429.112 75.5387 431.587 74.344C434.104 73.1493 436.984 72.552 440.227 72.552C443.086 72.552 445.731 73.0427 448.163 74.024C450.595 75.0053 452.686 76.392 454.435 78.184C456.227 79.976 457.571 82.1307 458.467 84.648L450.403 88.296C449.507 86.0773 448.163 84.3493 446.371 83.112C444.579 81.832 442.531 81.192 440.227 81.192C438.904 81.192 437.731 81.4053 436.707 81.832C435.683 82.2587 434.894 82.8773 434.339 83.688C433.784 84.456 433.507 85.352 433.507 86.376C433.507 87.4853 433.87 88.4667 434.595 89.32C435.32 90.1307 436.408 90.7707 437.859 91.24L447.011 94.184C450.851 95.4213 453.71 97.1493 455.587 99.368C457.507 101.587 458.467 104.296 458.467 107.496C458.467 110.269 457.742 112.744 456.291 114.92C454.84 117.053 452.835 118.739 450.275 119.976C447.758 121.171 444.814 121.768 441.443 121.768ZM465.536 121V73.32H497.601V81.96H475.457V92.776H496.321V101.416H475.457V112.36H497.601V121H465.536ZM503.224 121V73.32H521.464C524.749 73.32 527.651 73.896 530.168 75.048C532.728 76.2 534.733 77.9067 536.184 80.168C537.635 82.4293 538.36 85.224 538.36 88.552C538.36 91.7947 537.613 94.568 536.12 96.872C534.627 99.1333 532.621 100.84 530.104 101.992L540.984 121H529.848L518.072 99.944L524.472 103.72H513.144V121H503.224ZM513.144 95.08H521.528C522.936 95.08 524.152 94.8027 525.176 94.248C526.2 93.6933 526.989 92.9253 527.544 91.944C528.141 90.9627 528.44 89.832 528.44 88.552C528.44 87.2293 528.141 86.0773 527.544 85.096C526.989 84.1147 526.2 83.3467 525.176 82.792C524.152 82.2373 522.936 81.96 521.528 81.96H513.144V95.08Z" fill="white"/>
</g>
<defs>
<filter id="filter0_d_219_12" x="0.736496" y="0.751999" width="612.048" height="192.816" filterUnits="userSpaceOnUse" color-interpolation-filters="sRGB">
<feFlood flood-opacity="0" result="BackgroundImageFix"/>
<feColorMatrix in="SourceAlpha" type="matrix" values="0 0 0 0 0 0 0 0 0 0 0 0 0 0 0 0 0 0 127 0" result="hardAlpha"/>
<feOffset/>
<feGaussianBlur stdDeviation="35.9"/>
<feComposite in2="hardAlpha" operator="out"/>
<feColorMatrix type="matrix" values="0 0 0 0 0 0 0 0 0 0 0 0 0 0 0 0 0 0 1 0"/>
<feBlend mode="normal" in2="BackgroundImageFix" result="effect1_dropShadow_219_12"/>
<feBlend mode="normal" in="SourceGraphic" in2="effect1_dropShadow_219_12" result="shape"/>
</filter>
</defs>
</svg>
