<svg width="571" height="194" viewBox="0 0 571 194" fill="none" xmlns="http://www.w3.org/2000/svg">
<path opacity="0.15" d="M116.13 159.672C113.516 159.672 111.052 159.205 108.738 158.272C106.46 157.301 104.482 155.939 102.802 154.184C101.159 152.429 99.9271 150.357 99.1058 147.968L106.218 144.776C107.263 147.053 108.7 148.845 110.53 150.152C112.396 151.459 114.45 152.112 116.69 152.112C117.884 152.112 118.911 151.925 119.77 151.552C120.628 151.179 121.3 150.675 121.786 150.04C122.271 149.368 122.514 148.584 122.514 147.688C122.514 146.717 122.215 145.896 121.618 145.224C121.02 144.515 120.087 143.955 118.818 143.544L110.642 140.856C107.319 139.773 104.818 138.243 103.138 136.264C101.458 134.248 100.618 131.84 100.618 129.04C100.618 126.576 101.215 124.411 102.41 122.544C103.642 120.677 105.34 119.221 107.506 118.176C109.708 117.131 112.228 116.608 115.066 116.608C117.567 116.608 119.882 117.037 122.01 117.896C124.138 118.755 125.967 119.968 127.498 121.536C129.066 123.104 130.242 124.989 131.026 127.192L123.97 130.384C123.186 128.443 122.01 126.931 120.442 125.848C118.874 124.728 117.082 124.168 115.066 124.168C113.908 124.168 112.882 124.355 111.986 124.728C111.09 125.101 110.399 125.643 109.914 126.352C109.428 127.024 109.186 127.808 109.186 128.704C109.186 129.675 109.503 130.533 110.138 131.28C110.772 131.989 111.724 132.549 112.994 132.96L121.002 135.536C124.362 136.619 126.863 138.131 128.506 140.072C130.186 142.013 131.026 144.384 131.026 147.184C131.026 149.611 130.391 151.776 129.122 153.68C127.852 155.547 126.098 157.021 123.858 158.104C121.655 159.149 119.079 159.672 116.13 159.672ZM153.788 159.672C150.502 159.672 147.572 158.981 144.996 157.6C142.42 156.219 140.385 154.333 138.892 151.944C137.436 149.517 136.708 146.773 136.708 143.712V117.28H145.388V143.152C145.388 144.795 145.742 146.288 146.452 147.632C147.198 148.939 148.206 149.965 149.476 150.712C150.745 151.459 152.182 151.832 153.788 151.832C155.43 151.832 156.868 151.459 158.1 150.712C159.369 149.965 160.358 148.939 161.068 147.632C161.814 146.288 162.188 144.795 162.188 143.152V117.28H170.868V143.712C170.868 146.773 170.121 149.517 168.628 151.944C167.172 154.333 165.156 156.219 162.58 157.6C160.004 158.981 157.073 159.672 153.788 159.672ZM177.735 159V117.28H186.135L201.759 138H197.839L213.015 117.28H221.415V159H212.735V126.856L216.207 127.64L200.135 148.36H199.015L183.503 127.64L186.415 126.856V159H177.735ZM228.813 159V117.28H237.213L252.837 138H248.917L264.093 117.28H272.493V159H263.813V126.856L267.285 127.64L251.213 148.36H250.093L234.581 127.64L237.493 126.856V159H228.813ZM276.811 159L290.923 117.28H302.459L316.571 159H307.107L304.307 150.488H289.019L286.219 159H276.811ZM291.427 142.928H301.899L295.515 123.216H297.867L291.427 142.928ZM320.907 159V117.28H336.867C339.742 117.28 342.28 117.784 344.483 118.792C346.723 119.8 348.478 121.293 349.747 123.272C351.016 125.251 351.651 127.696 351.651 130.608C351.651 133.445 350.998 135.872 349.691 137.888C348.384 139.867 346.63 141.36 344.427 142.368L353.947 159H344.203L333.899 140.576L339.499 143.88H329.587V159H320.907ZM329.587 136.32H336.923C338.155 136.32 339.219 136.077 340.115 135.592C341.011 135.107 341.702 134.435 342.187 133.576C342.71 132.717 342.971 131.728 342.971 130.608C342.971 129.451 342.71 128.443 342.187 127.584C341.702 126.725 341.011 126.053 340.115 125.568C339.219 125.083 338.155 124.84 336.923 124.84H329.587V136.32ZM358.258 159V117.28H366.939V159H358.258ZM371.257 159V152L390.241 124.84H372.377V117.28H401.217V124.28L382.289 151.44H401.777V159H371.257ZM406.11 159V117.28H434.166V124.84H414.79V134.304H433.046V141.864H414.79V151.44H434.166V159H406.11ZM439.087 159V117.28H455.047C457.921 117.28 460.46 117.784 462.663 118.792C464.903 119.8 466.657 121.293 467.927 123.272C469.196 125.251 469.831 127.696 469.831 130.608C469.831 133.445 469.177 135.872 467.871 137.888C466.564 139.867 464.809 141.36 462.607 142.368L472.127 159H462.383L452.079 140.576L457.679 143.88H447.767V159H439.087ZM447.767 136.32H455.103C456.335 136.32 457.399 136.077 458.295 135.592C459.191 135.107 459.881 134.435 460.367 133.576C460.889 132.717 461.151 131.728 461.151 130.608C461.151 129.451 460.889 128.443 460.367 127.584C459.881 126.725 459.191 126.053 458.295 125.568C457.399 125.083 456.335 124.84 455.103 124.84H447.767V136.32Z" fill="white"/>
<path opacity="0.15" d="M117.13 75.672C114.516 75.672 112.052 75.2053 109.738 74.272C107.46 73.3013 105.482 71.9387 103.802 70.184C102.159 68.4293 100.927 66.3573 100.106 63.968L107.218 60.776C108.263 63.0533 109.7 64.8453 111.53 66.152C113.396 67.4587 115.45 68.112 117.69 68.112C118.884 68.112 119.911 67.9253 120.77 67.552C121.628 67.1787 122.3 66.6747 122.786 66.04C123.271 65.368 123.514 64.584 123.514 63.688C123.514 62.7173 123.215 61.896 122.618 61.224C122.02 60.5147 121.087 59.9547 119.818 59.544L111.642 56.856C108.319 55.7733 105.818 54.2427 104.138 52.264C102.458 50.248 101.618 47.84 101.618 45.04C101.618 42.576 102.215 40.4107 103.41 38.544C104.642 36.6773 106.34 35.2213 108.506 34.176C110.708 33.1307 113.228 32.608 116.066 32.608C118.567 32.608 120.882 33.0373 123.01 33.896C125.138 34.7547 126.967 35.968 128.498 37.536C130.066 39.104 131.242 40.9893 132.026 43.192L124.97 46.384C124.186 44.4427 123.01 42.9307 121.442 41.848C119.874 40.728 118.082 40.168 116.066 40.168C114.908 40.168 113.882 40.3547 112.986 40.728C112.09 41.1013 111.399 41.6427 110.914 42.352C110.428 43.024 110.186 43.808 110.186 44.704C110.186 45.6747 110.503 46.5333 111.138 47.28C111.772 47.9893 112.724 48.5493 113.994 48.96L122.002 51.536C125.362 52.6187 127.863 54.1307 129.506 56.072C131.186 58.0133 132.026 60.384 132.026 63.184C132.026 65.6107 131.391 67.776 130.122 69.68C128.852 71.5467 127.098 73.0213 124.858 74.104C122.655 75.1493 120.079 75.672 117.13 75.672ZM154.788 75.672C151.502 75.672 148.572 74.9813 145.996 73.6C143.42 72.2187 141.385 70.3333 139.892 67.944C138.436 65.5173 137.708 62.7733 137.708 59.712V33.28H146.388V59.152C146.388 60.7947 146.742 62.288 147.452 63.632C148.198 64.9387 149.206 65.9653 150.476 66.712C151.745 67.4587 153.182 67.832 154.788 67.832C156.43 67.832 157.868 67.4587 159.1 66.712C160.369 65.9653 161.358 64.9387 162.068 63.632C162.814 62.288 163.188 60.7947 163.188 59.152V33.28H171.868V59.712C171.868 62.7733 171.121 65.5173 169.628 67.944C168.172 70.3333 166.156 72.2187 163.58 73.6C161.004 74.9813 158.073 75.672 154.788 75.672ZM178.735 75V33.28H187.135L202.759 54H198.839L214.015 33.28H222.415V75H213.735V42.856L217.207 43.64L201.135 64.36H200.015L184.503 43.64L187.415 42.856V75H178.735ZM229.813 75V33.28H238.213L253.837 54H249.917L265.093 33.28H273.493V75H264.813V42.856L268.285 43.64L252.213 64.36H251.093L235.581 43.64L238.493 42.856V75H229.813ZM277.811 75L291.923 33.28H303.459L317.571 75H308.107L305.307 66.488H290.019L287.219 75H277.811ZM292.427 58.928H302.899L296.515 39.216H298.867L292.427 58.928ZM321.907 75V33.28H337.867C340.742 33.28 343.28 33.784 345.483 34.792C347.723 35.8 349.478 37.2933 350.747 39.272C352.016 41.2507 352.651 43.696 352.651 46.608C352.651 49.4453 351.998 51.872 350.691 53.888C349.384 55.8667 347.63 57.36 345.427 58.368L354.947 75H345.203L334.899 56.576L340.499 59.88H330.587V75H321.907ZM330.587 52.32H337.923C339.155 52.32 340.219 52.0773 341.115 51.592C342.011 51.1067 342.702 50.4347 343.187 49.576C343.71 48.7173 343.971 47.728 343.971 46.608C343.971 45.4507 343.71 44.4427 343.187 43.584C342.702 42.7253 342.011 42.0533 341.115 41.568C340.219 41.0827 339.155 40.84 337.923 40.84H330.587V52.32ZM359.258 75V33.28H367.939V75H359.258ZM372.257 75V68L391.241 40.84H373.377V33.28H402.217V40.28L383.289 67.44H402.777V75H372.257ZM407.11 75V33.28H435.166V40.84H415.79V50.304H434.046V57.864H415.79V67.44H435.166V75H407.11ZM440.087 75V33.28H456.047C458.921 33.28 461.46 33.784 463.663 34.792C465.903 35.8 467.657 37.2933 468.927 39.272C470.196 41.2507 470.831 43.696 470.831 46.608C470.831 49.4453 470.177 51.872 468.871 53.888C467.564 55.8667 465.809 57.36 463.607 58.368L473.127 75H463.383L453.079 56.576L458.679 59.88H448.767V75H440.087ZM448.767 52.32H456.103C457.335 52.32 458.399 52.0773 459.295 51.592C460.191 51.1067 460.881 50.4347 461.367 49.576C461.889 48.7173 462.151 47.728 462.151 46.608C462.151 45.4507 461.889 44.4427 461.367 43.584C460.881 42.7253 460.191 42.0533 459.295 41.568C458.399 41.0827 457.335 40.84 456.103 40.84H448.767V52.32Z" fill="white"/>
<g filter="url(#filter0_d_244_2)">
<path d="M92.0055 121.768C89.0188 121.768 86.2028 121.235 83.5575 120.168C80.9548 119.059 78.6935 117.501 76.7735 115.496C74.8962 113.491 73.4882 111.123 72.5495 108.392L80.6775 104.744C81.8722 107.347 83.5148 109.395 85.6055 110.888C87.7388 112.381 90.0855 113.128 92.6455 113.128C94.0108 113.128 95.1842 112.915 96.1655 112.488C97.1468 112.061 97.9148 111.485 98.4695 110.76C99.0242 109.992 99.3015 109.096 99.3015 108.072C99.3015 106.963 98.9602 106.024 98.2775 105.256C97.5948 104.445 96.5282 103.805 95.0775 103.336L85.7335 100.264C81.9362 99.0267 79.0775 97.2773 77.1575 95.016C75.2375 92.712 74.2775 89.96 74.2775 86.76C74.2775 83.944 74.9602 81.4693 76.3255 79.336C77.7335 77.2027 79.6748 75.5387 82.1495 74.344C84.6668 73.1493 87.5468 72.552 90.7895 72.552C93.6482 72.552 96.2935 73.0427 98.7255 74.024C101.158 75.0053 103.248 76.392 104.998 78.184C106.79 79.976 108.134 82.1307 109.03 84.648L100.966 88.296C100.07 86.0773 98.7255 84.3493 96.9335 83.112C95.1415 81.832 93.0935 81.192 90.7895 81.192C89.4668 81.192 88.2935 81.4053 87.2695 81.832C86.2455 82.2587 85.4562 82.8773 84.9015 83.688C84.3468 84.456 84.0695 85.352 84.0695 86.376C84.0695 87.4853 84.4322 88.4667 85.1575 89.32C85.8828 90.1307 86.9708 90.7707 88.4215 91.24L97.5735 94.184C101.414 95.4213 104.272 97.1493 106.15 99.368C108.07 101.587 109.03 104.296 109.03 107.496C109.03 110.269 108.304 112.744 106.854 114.92C105.403 117.053 103.398 118.739 100.838 119.976C98.3202 121.171 95.3762 121.768 92.0055 121.768ZM135.043 121.768C131.288 121.768 127.939 120.979 124.995 119.4C122.051 117.821 119.726 115.667 118.019 112.936C116.355 110.163 115.523 107.027 115.523 103.528V73.32H125.443V102.888C125.443 104.765 125.848 106.472 126.659 108.008C127.512 109.501 128.664 110.675 130.115 111.528C131.566 112.381 133.208 112.808 135.043 112.808C136.92 112.808 138.563 112.381 139.971 111.528C141.422 110.675 142.552 109.501 143.363 108.008C144.216 106.472 144.643 104.765 144.643 102.888V73.32H154.563V103.528C154.563 107.027 153.71 110.163 152.003 112.936C150.339 115.667 148.035 117.821 145.091 119.4C142.147 120.979 138.798 121.768 135.043 121.768ZM162.411 121V73.32H172.012L189.868 97H185.388L202.732 73.32H212.332V121H202.412V84.264L206.38 85.16L188.012 108.84H186.732L169.004 85.16L172.332 84.264V121H162.411ZM220.786 121V73.32H230.387L248.243 97H243.763L261.107 73.32H270.707V121H260.787V84.264L264.755 85.16L246.387 108.84H245.107L227.379 85.16L230.707 84.264V121H220.786ZM275.642 121L291.77 73.32H304.954L321.082 121H310.266L307.066 111.272H289.594L286.394 121H275.642ZM292.346 102.632H304.314L297.018 80.104H299.706L292.346 102.632ZM326.036 121V73.32H344.277C347.562 73.32 350.463 73.896 352.981 75.048C355.541 76.2 357.546 77.9067 358.997 80.168C360.447 82.4293 361.173 85.224 361.173 88.552C361.173 91.7947 360.426 94.568 358.933 96.872C357.439 99.1333 355.434 100.84 352.917 101.992L363.797 121H352.661L340.885 99.944L347.285 103.72H335.957V121H326.036ZM335.957 95.08H344.341C345.749 95.08 346.965 94.8027 347.989 94.248C349.013 93.6933 349.802 92.9253 350.357 91.944C350.954 90.9627 351.253 89.832 351.253 88.552C351.253 87.2293 350.954 86.0773 350.357 85.096C349.802 84.1147 349.013 83.3467 347.989 82.792C346.965 82.2373 345.749 81.96 344.341 81.96H335.957V95.08ZM368.724 121V73.32H378.644V121H368.724ZM383.579 121V113L405.275 81.96H384.859V73.32H417.819V81.32L396.187 112.36H418.459V121H383.579ZM423.411 121V73.32H455.476V81.96H433.332V92.776H454.196V101.416H433.332V112.36H455.476V121H423.411ZM461.099 121V73.32H479.339C482.624 73.32 485.526 73.896 488.043 75.048C490.603 76.2 492.608 77.9067 494.059 80.168C495.51 82.4293 496.235 85.224 496.235 88.552C496.235 91.7947 495.488 94.568 493.995 96.872C492.502 99.1333 490.496 100.84 487.979 101.992L498.859 121H487.723L475.947 99.944L482.347 103.72H471.019V121H461.099ZM471.019 95.08H479.403C480.811 95.08 482.027 94.8027 483.051 94.248C484.075 93.6933 484.864 92.9253 485.419 91.944C486.016 90.9627 486.315 89.832 486.315 88.552C486.315 87.2293 486.016 86.0773 485.419 85.096C484.864 84.1147 484.075 83.3467 483.051 82.792C482.027 82.2373 480.811 81.96 479.403 81.96H471.019V95.08Z" fill="white"/>
</g>
<defs>
<filter id="filter0_d_244_2" x="0.749557" y="0.751999" width="569.909" height="192.816" filterUnits="userSpaceOnUse" color-interpolation-filters="sRGB">
<feFlood flood-opacity="0" result="BackgroundImageFix"/>
<feColorMatrix in="SourceAlpha" type="matrix" values="0 0 0 0 0 0 0 0 0 0 0 0 0 0 0 0 0 0 127 0" result="hardAlpha"/>
<feOffset/>
<feGaussianBlur stdDeviation="35.9"/>
<feComposite in2="hardAlpha" operator="out"/>
<feColorMatrix type="matrix" values="0 0 0 0 0 0 0 0 0 0 0 0 0 0 0 0 0 0 1 0"/>
<feBlend mode="normal" in2="BackgroundImageFix" result="effect1_dropShadow_244_2"/>
<feBlend mode="normal" in="SourceGraphic" in2="effect1_dropShadow_244_2" result="shape"/>
</filter>
</defs>
</svg>
