<svg width="692" height="194" viewBox="0 0 692 194" fill="none" xmlns="http://www.w3.org/2000/svg">
<path opacity="0.15" d="M117.348 159V124.84H106.764V117.28H136.444V124.84H126.028V159H117.348ZM140.743 159V117.28H168.799V124.84H149.423V134.304H167.679V141.864H149.423V151.44H168.799V159H140.743ZM170.639 159L184.303 138.112L170.639 117.28H180.607L191.583 133.968H186.711L197.631 117.28H207.599L193.991 138.112L207.599 159H197.631L186.711 142.256L191.583 142.312L180.607 159H170.639ZM219.395 159V124.84H208.811V117.28H238.491V124.84H228.075V159H219.395ZM252.852 159V117.28H280.908V124.84H261.532V134.304H279.788V141.864H261.532V151.44H280.908V159H252.852ZM282.749 159L296.413 138.112L282.749 117.28H292.717L303.693 133.968H298.821L309.741 117.28H319.709L306.101 138.112L319.709 159H309.741L298.821 142.256L303.693 142.312L292.717 159H282.749ZM331.505 159V124.84H320.921V117.28H350.601V124.84H340.185V159H331.505ZM354.899 159V117.28H370.859C373.734 117.28 376.272 117.784 378.475 118.792C380.715 119.8 382.47 121.293 383.739 123.272C385.008 125.251 385.643 127.696 385.643 130.608C385.643 133.445 384.99 135.872 383.683 137.888C382.376 139.867 380.622 141.36 378.419 142.368L387.939 159H378.195L367.891 140.576L373.491 143.88H363.579V159H354.899ZM363.579 136.32H370.915C372.147 136.32 373.211 136.077 374.107 135.592C375.003 135.107 375.694 134.435 376.179 133.576C376.702 132.717 376.963 131.728 376.963 130.608C376.963 129.451 376.702 128.443 376.179 127.584C375.694 126.725 375.003 126.053 374.107 125.568C373.211 125.083 372.147 124.84 370.915 124.84H363.579V136.32ZM389.171 159L403.283 117.28H414.819L428.931 159H419.467L416.667 150.488H401.379L398.579 159H389.171ZM403.787 142.928H414.259L407.875 123.216H410.227L403.787 142.928ZM451.395 159.672C448.408 159.672 445.627 159.131 443.051 158.048C440.512 156.965 438.291 155.453 436.387 153.512C434.483 151.571 432.99 149.293 431.907 146.68C430.862 144.067 430.339 141.211 430.339 138.112C430.339 135.013 430.862 132.157 431.907 129.544C432.952 126.893 434.427 124.616 436.331 122.712C438.235 120.771 440.456 119.277 442.995 118.232C445.571 117.149 448.371 116.608 451.395 116.608C454.419 116.608 457.126 117.112 459.515 118.12C461.942 119.128 463.995 120.472 465.675 122.152C467.355 123.832 468.55 125.699 469.259 127.752L461.587 131.448C460.878 129.432 459.627 127.771 457.835 126.464C456.08 125.12 453.934 124.448 451.395 124.448C448.931 124.448 446.766 125.027 444.899 126.184C443.032 127.341 441.576 128.947 440.531 131C439.523 133.016 439.019 135.387 439.019 138.112C439.019 140.837 439.523 143.227 440.531 145.28C441.576 147.333 443.032 148.939 444.899 150.096C446.766 151.253 448.931 151.832 451.395 151.832C453.934 151.832 456.08 151.179 457.835 149.872C459.627 148.528 460.878 146.848 461.587 144.832L469.259 148.528C468.55 150.581 467.355 152.448 465.675 154.128C463.995 155.808 461.942 157.152 459.515 158.16C457.126 159.168 454.419 159.672 451.395 159.672ZM482.333 159V124.84H471.749V117.28H501.429V124.84H491.013V159H482.333ZM524.92 159.672C521.784 159.672 518.872 159.131 516.184 158.048C513.496 156.965 511.144 155.453 509.128 153.512C507.149 151.533 505.6 149.237 504.48 146.624C503.36 144.011 502.8 141.173 502.8 138.112C502.8 135.051 503.341 132.213 504.424 129.6C505.544 126.987 507.093 124.709 509.072 122.768C511.088 120.827 513.44 119.315 516.128 118.232C518.816 117.149 521.747 116.608 524.92 116.608C528.093 116.608 531.024 117.149 533.712 118.232C536.4 119.315 538.733 120.827 540.712 122.768C542.728 124.709 544.277 126.987 545.36 129.6C546.48 132.213 547.04 135.051 547.04 138.112C547.04 141.173 546.48 144.011 545.36 146.624C544.24 149.237 542.672 151.533 540.656 153.512C538.677 155.453 536.344 156.965 533.656 158.048C530.968 159.131 528.056 159.672 524.92 159.672ZM524.92 151.832C526.824 151.832 528.579 151.496 530.184 150.824C531.827 150.152 533.264 149.219 534.496 148.024C535.728 146.792 536.68 145.336 537.352 143.656C538.024 141.976 538.36 140.128 538.36 138.112C538.36 136.096 538.024 134.267 537.352 132.624C536.68 130.944 535.728 129.488 534.496 128.256C533.264 127.024 531.827 126.091 530.184 125.456C528.579 124.784 526.824 124.448 524.92 124.448C523.016 124.448 521.243 124.784 519.6 125.456C517.995 126.091 516.576 127.024 515.344 128.256C514.112 129.488 513.16 130.944 512.488 132.624C511.816 134.267 511.48 136.096 511.48 138.112C511.48 140.128 511.816 141.976 512.488 143.656C513.16 145.336 514.112 146.792 515.344 148.024C516.576 149.219 517.995 150.152 519.6 150.824C521.243 151.496 523.016 151.832 524.92 151.832ZM553.196 159V117.28H569.156C572.031 117.28 574.569 117.784 576.772 118.792C579.012 119.8 580.767 121.293 582.036 123.272C583.305 125.251 583.94 127.696 583.94 130.608C583.94 133.445 583.287 135.872 581.98 137.888C580.673 139.867 578.919 141.36 576.716 142.368L586.236 159H576.492L566.188 140.576L571.788 143.88H561.876V159H553.196ZM561.876 136.32H569.212C570.444 136.32 571.508 136.077 572.404 135.592C573.3 135.107 573.991 134.435 574.476 133.576C574.999 132.717 575.26 131.728 575.26 130.608C575.26 129.451 574.999 128.443 574.476 127.584C573.991 126.725 573.3 126.053 572.404 125.568C571.508 125.083 570.444 124.84 569.212 124.84H561.876V136.32Z" fill="white"/>
<path opacity="0.15" d="M118.348 75V40.84H107.764V33.28H137.444V40.84H127.028V75H118.348ZM141.743 75V33.28H169.799V40.84H150.423V50.304H168.679V57.864H150.423V67.44H169.799V75H141.743ZM171.639 75L185.303 54.112L171.639 33.28H181.607L192.583 49.968H187.711L198.631 33.28H208.599L194.991 54.112L208.599 75H198.631L187.711 58.256L192.583 58.312L181.607 75H171.639ZM220.395 75V40.84H209.811V33.28H239.491V40.84H229.075V75H220.395ZM253.852 75V33.28H281.908V40.84H262.532V50.304H280.788V57.864H262.532V67.44H281.908V75H253.852ZM283.749 75L297.413 54.112L283.749 33.28H293.717L304.693 49.968H299.821L310.741 33.28H320.709L307.101 54.112L320.709 75H310.741L299.821 58.256L304.693 58.312L293.717 75H283.749ZM332.505 75V40.84H321.921V33.28H351.601V40.84H341.185V75H332.505ZM355.899 75V33.28H371.859C374.734 33.28 377.272 33.784 379.475 34.792C381.715 35.8 383.47 37.2933 384.739 39.272C386.008 41.2507 386.643 43.696 386.643 46.608C386.643 49.4453 385.99 51.872 384.683 53.888C383.376 55.8667 381.622 57.36 379.419 58.368L388.939 75H379.195L368.891 56.576L374.491 59.88H364.579V75H355.899ZM364.579 52.32H371.915C373.147 52.32 374.211 52.0773 375.107 51.592C376.003 51.1067 376.694 50.4347 377.179 49.576C377.702 48.7173 377.963 47.728 377.963 46.608C377.963 45.4507 377.702 44.4427 377.179 43.584C376.694 42.7253 376.003 42.0533 375.107 41.568C374.211 41.0827 373.147 40.84 371.915 40.84H364.579V52.32ZM390.171 75L404.283 33.28H415.819L429.931 75H420.467L417.667 66.488H402.379L399.579 75H390.171ZM404.787 58.928H415.259L408.875 39.216H411.227L404.787 58.928ZM452.395 75.672C449.408 75.672 446.627 75.1307 444.051 74.048C441.512 72.9653 439.291 71.4533 437.387 69.512C435.483 67.5707 433.99 65.2933 432.907 62.68C431.862 60.0667 431.339 57.2107 431.339 54.112C431.339 51.0133 431.862 48.1573 432.907 45.544C433.952 42.8933 435.427 40.616 437.331 38.712C439.235 36.7707 441.456 35.2773 443.995 34.232C446.571 33.1493 449.371 32.608 452.395 32.608C455.419 32.608 458.126 33.112 460.515 34.12C462.942 35.128 464.995 36.472 466.675 38.152C468.355 39.832 469.55 41.6987 470.259 43.752L462.587 47.448C461.878 45.432 460.627 43.7707 458.835 42.464C457.08 41.12 454.934 40.448 452.395 40.448C449.931 40.448 447.766 41.0267 445.899 42.184C444.032 43.3413 442.576 44.9467 441.531 47C440.523 49.016 440.019 51.3867 440.019 54.112C440.019 56.8373 440.523 59.2267 441.531 61.28C442.576 63.3333 444.032 64.9387 445.899 66.096C447.766 67.2533 449.931 67.832 452.395 67.832C454.934 67.832 457.08 67.1787 458.835 65.872C460.627 64.528 461.878 62.848 462.587 60.832L470.259 64.528C469.55 66.5813 468.355 68.448 466.675 70.128C464.995 71.808 462.942 73.152 460.515 74.16C458.126 75.168 455.419 75.672 452.395 75.672ZM483.333 75V40.84H472.749V33.28H502.429V40.84H492.013V75H483.333ZM525.92 75.672C522.784 75.672 519.872 75.1307 517.184 74.048C514.496 72.9653 512.144 71.4533 510.128 69.512C508.149 67.5333 506.6 65.2373 505.48 62.624C504.36 60.0107 503.8 57.1733 503.8 54.112C503.8 51.0507 504.341 48.2133 505.424 45.6C506.544 42.9867 508.093 40.7093 510.072 38.768C512.088 36.8267 514.44 35.3147 517.128 34.232C519.816 33.1493 522.747 32.608 525.92 32.608C529.093 32.608 532.024 33.1493 534.712 34.232C537.4 35.3147 539.733 36.8267 541.712 38.768C543.728 40.7093 545.277 42.9867 546.36 45.6C547.48 48.2133 548.04 51.0507 548.04 54.112C548.04 57.1733 547.48 60.0107 546.36 62.624C545.24 65.2373 543.672 67.5333 541.656 69.512C539.677 71.4533 537.344 72.9653 534.656 74.048C531.968 75.1307 529.056 75.672 525.92 75.672ZM525.92 67.832C527.824 67.832 529.579 67.496 531.184 66.824C532.827 66.152 534.264 65.2187 535.496 64.024C536.728 62.792 537.68 61.336 538.352 59.656C539.024 57.976 539.36 56.128 539.36 54.112C539.36 52.096 539.024 50.2667 538.352 48.624C537.68 46.944 536.728 45.488 535.496 44.256C534.264 43.024 532.827 42.0907 531.184 41.456C529.579 40.784 527.824 40.448 525.92 40.448C524.016 40.448 522.243 40.784 520.6 41.456C518.995 42.0907 517.576 43.024 516.344 44.256C515.112 45.488 514.16 46.944 513.488 48.624C512.816 50.2667 512.48 52.096 512.48 54.112C512.48 56.128 512.816 57.976 513.488 59.656C514.16 61.336 515.112 62.792 516.344 64.024C517.576 65.2187 518.995 66.152 520.6 66.824C522.243 67.496 524.016 67.832 525.92 67.832ZM554.196 75V33.28H570.156C573.031 33.28 575.569 33.784 577.772 34.792C580.012 35.8 581.767 37.2933 583.036 39.272C584.305 41.2507 584.94 43.696 584.94 46.608C584.94 49.4453 584.287 51.872 582.98 53.888C581.673 55.8667 579.919 57.36 577.716 58.368L587.236 75H577.492L567.188 56.576L572.788 59.88H562.876V75H554.196ZM562.876 52.32H570.212C571.444 52.32 572.508 52.0773 573.404 51.592C574.3 51.1067 574.991 50.4347 575.476 49.576C575.999 48.7173 576.26 47.728 576.26 46.608C576.26 45.4507 575.999 44.4427 575.476 43.584C574.991 42.7253 574.3 42.0533 573.404 41.568C572.508 41.0827 571.444 40.84 570.212 40.84H562.876V52.32Z" fill="white"/>
<g filter="url(#filter0_d_244_2)">
<path d="M84.1125 121V81.96H72.0165V73.32H105.937V81.96H94.0325V121H84.1125ZM110.849 121V73.32H142.913V81.96H120.769V92.776H141.633V101.416H120.769V112.36H142.913V121H110.849ZM145.017 121L160.633 97.128L145.017 73.32H156.409L168.953 92.392H163.385L175.865 73.32H187.257L171.705 97.128L187.257 121H175.865L163.385 101.864L168.953 101.928L156.409 121H145.017ZM200.738 121V81.96H188.642V73.32H222.562V81.96H210.658V121H200.738ZM238.974 121V73.32H271.038V81.96H248.894V92.776H269.758V101.416H248.894V112.36H271.038V121H238.974ZM273.142 121L288.758 97.128L273.142 73.32H284.534L297.078 92.392H291.51L303.99 73.32H315.382L299.83 97.128L315.382 121H303.99L291.51 101.864L297.078 101.928L284.534 121H273.142ZM328.863 121V81.96H316.767V73.32H350.687V81.96H338.783V121H328.863ZM355.599 121V73.32H373.839C377.124 73.32 380.026 73.896 382.543 75.048C385.103 76.2 387.108 77.9067 388.559 80.168C390.01 82.4293 390.735 85.224 390.735 88.552C390.735 91.7947 389.988 94.568 388.495 96.872C387.002 99.1333 384.996 100.84 382.479 101.992L393.359 121H382.223L370.447 99.944L376.847 103.72H365.519V121H355.599ZM365.519 95.08H373.903C375.311 95.08 376.527 94.8027 377.551 94.248C378.575 93.6933 379.364 92.9253 379.919 91.944C380.516 90.9627 380.815 89.832 380.815 88.552C380.815 87.2293 380.516 86.0773 379.919 85.096C379.364 84.1147 378.575 83.3467 377.551 82.792C376.527 82.2373 375.311 81.96 373.903 81.96H365.519V95.08ZM394.767 121L410.895 73.32H424.079L440.207 121H429.391L426.191 111.272H408.719L405.519 121H394.767ZM411.471 102.632H423.439L416.143 80.104H418.831L411.471 102.632ZM465.88 121.768C462.467 121.768 459.288 121.149 456.344 119.912C453.443 118.675 450.904 116.947 448.728 114.728C446.552 112.509 444.845 109.907 443.608 106.92C442.413 103.933 441.816 100.669 441.816 97.128C441.816 93.5867 442.413 90.3227 443.608 87.336C444.803 84.3067 446.488 81.704 448.664 79.528C450.84 77.3093 453.379 75.6027 456.28 74.408C459.224 73.1707 462.424 72.552 465.88 72.552C469.336 72.552 472.429 73.128 475.16 74.28C477.933 75.432 480.28 76.968 482.2 78.888C484.12 80.808 485.485 82.9413 486.296 85.288L477.528 89.512C476.717 87.208 475.288 85.3093 473.24 83.816C471.235 82.28 468.781 81.512 465.88 81.512C463.064 81.512 460.589 82.1733 458.456 83.496C456.323 84.8187 454.659 86.6533 453.464 89C452.312 91.304 451.736 94.0133 451.736 97.128C451.736 100.243 452.312 102.973 453.464 105.32C454.659 107.667 456.323 109.501 458.456 110.824C460.589 112.147 463.064 112.808 465.88 112.808C468.781 112.808 471.235 112.061 473.24 110.568C475.288 109.032 476.717 107.112 477.528 104.808L486.296 109.032C485.485 111.379 484.12 113.512 482.2 115.432C480.28 117.352 477.933 118.888 475.16 120.04C472.429 121.192 469.336 121.768 465.88 121.768ZM501.238 121V81.96H489.142V73.32H523.062V81.96H511.158V121H501.238ZM549.909 121.768C546.325 121.768 542.997 121.149 539.925 119.912C536.853 118.675 534.165 116.947 531.861 114.728C529.599 112.467 527.829 109.843 526.549 106.856C525.269 103.869 524.629 100.627 524.629 97.128C524.629 93.6293 525.247 90.3867 526.485 87.4C527.765 84.4133 529.535 81.8107 531.797 79.592C534.101 77.3733 536.789 75.6453 539.861 74.408C542.933 73.1707 546.282 72.552 549.909 72.552C553.535 72.552 556.885 73.1707 559.957 74.408C563.029 75.6453 565.695 77.3733 567.957 79.592C570.261 81.8107 572.031 84.4133 573.269 87.4C574.549 90.3867 575.189 93.6293 575.189 97.128C575.189 100.627 574.549 103.869 573.269 106.856C571.989 109.843 570.197 112.467 567.893 114.728C565.631 116.947 562.965 118.675 559.893 119.912C556.821 121.149 553.493 121.768 549.909 121.768ZM549.909 112.808C552.085 112.808 554.09 112.424 555.925 111.656C557.802 110.888 559.445 109.821 560.853 108.456C562.261 107.048 563.349 105.384 564.117 103.464C564.885 101.544 565.269 99.432 565.269 97.128C565.269 94.824 564.885 92.7333 564.117 90.856C563.349 88.936 562.261 87.272 560.853 85.864C559.445 84.456 557.802 83.3893 555.925 82.664C554.09 81.896 552.085 81.512 549.909 81.512C547.733 81.512 545.706 81.896 543.829 82.664C541.994 83.3893 540.373 84.456 538.965 85.864C537.557 87.272 536.469 88.936 535.701 90.856C534.933 92.7333 534.549 94.824 534.549 97.128C534.549 99.432 534.933 101.544 535.701 103.464C536.469 105.384 537.557 107.048 538.965 108.456C540.373 109.821 541.994 110.888 543.829 111.656C545.706 112.424 547.733 112.808 549.909 112.808ZM582.224 121V73.32H600.464C603.749 73.32 606.651 73.896 609.168 75.048C611.728 76.2 613.733 77.9067 615.184 80.168C616.635 82.4293 617.36 85.224 617.36 88.552C617.36 91.7947 616.613 94.568 615.12 96.872C613.627 99.1333 611.621 100.84 609.104 101.992L619.984 121H608.848L597.072 99.944L603.472 103.72H592.144V121H582.224ZM592.144 95.08H600.528C601.936 95.08 603.152 94.8027 604.176 94.248C605.2 93.6933 605.989 92.9253 606.544 91.944C607.141 90.9627 607.44 89.832 607.44 88.552C607.44 87.2293 607.141 86.0773 606.544 85.096C605.989 84.1147 605.2 83.3467 604.176 82.792C603.152 82.2373 601.936 81.96 600.528 81.96H592.144V95.08Z" fill="white"/>
</g>
<defs>
<filter id="filter0_d_244_2" x="0.216476" y="0.751999" width="691.568" height="192.816" filterUnits="userSpaceOnUse" color-interpolation-filters="sRGB">
<feFlood flood-opacity="0" result="BackgroundImageFix"/>
<feColorMatrix in="SourceAlpha" type="matrix" values="0 0 0 0 0 0 0 0 0 0 0 0 0 0 0 0 0 0 127 0" result="hardAlpha"/>
<feOffset/>
<feGaussianBlur stdDeviation="35.9"/>
<feComposite in2="hardAlpha" operator="out"/>
<feColorMatrix type="matrix" values="0 0 0 0 0 0 0 0 0 0 0 0 0 0 0 0 0 0 1 0"/>
<feBlend mode="normal" in2="BackgroundImageFix" result="effect1_dropShadow_244_2"/>
<feBlend mode="normal" in="SourceGraphic" in2="effect1_dropShadow_244_2" result="shape"/>
</filter>
</defs>
</svg>
