<svg width="28" height="28" viewBox="0 0 28 28" fill="none" xmlns="http://www.w3.org/2000/svg">
<path d="M14.6667 0H28V14.9333C28 15.6395 27.8902 16.32 27.6868 16.9587C26.8295 19.6503 24.3091 21.6 21.3333 21.6C17.6514 21.6 14.6667 18.6152 14.6667 14.9333V0Z" fill="#ffffff"/>
<path fill-rule="evenodd" clip-rule="evenodd" d="M11.2 0H0V14C0 21.732 6.26801 28 14 28C17.2837 28 20.3033 26.8695 22.6909 24.9765C22.2468 25.036 21.7937 25.0667 21.3333 25.0667C15.7368 25.0667 11.2 20.5298 11.2 14.9333V0ZM28 0H14.6667V14.9333C14.6667 18.6152 17.6514 21.6 21.3333 21.6C24.3091 21.6 26.8295 19.6503 27.6868 16.9587C27.8902 16.32 28 15.6395 28 14.9333V14V0Z" fill="#ffffff"/>
</svg>
