<svg width="25" height="28" viewBox="0 0 25 28" fill="none" xmlns="http://www.w3.org/2000/svg">
<path opacity="0.987" fill-rule="evenodd" clip-rule="evenodd" d="M14.7284 0C15.0962 0 15.464 0 15.8319 0C16.5393 0.208954 16.801 0.701756 16.6171 1.4784C15.8562 5.35898 17.0942 8.27841 20.3311 10.2368C21.1936 10.7068 22.0425 11.1996 22.8778 11.7152C23.7489 12.2463 24.3785 13.0004 24.7666 13.9776C24.864 14.2918 24.9418 14.6054 25 14.9184C25 15.3963 25 15.8741 25 16.352C24.768 17.7989 24.294 19.1579 23.5781 20.4288C21.5979 23.8302 18.8178 26.1822 15.2377 27.4848C14.6955 27.6605 14.1437 27.7874 13.5823 27.8656C13.5823 27.8507 13.5823 27.8357 13.5823 27.8208C16.0161 27.0218 17.6927 25.3642 18.6121 22.848C18.7878 22.209 18.8019 21.5669 18.6545 20.9216C18.4721 20.49 18.1962 20.1391 17.8268 19.8688C17.3595 19.5624 16.8784 19.2786 16.3837 19.0176C15.3299 18.3983 14.6862 17.465 14.4525 16.2176C14.4408 15.5279 14.4691 14.841 14.5374 14.1568C14.3965 13.9228 14.1913 13.8182 13.9219 13.8432C12.9271 13.9873 11.9933 14.3233 11.1205 14.8512C9.5059 15.7639 8.16889 17.0108 7.10951 18.592C5.93939 20.6589 5.95352 22.7197 7.15195 24.7744C8.24194 26.6198 9.80531 27.695 11.8421 28C11.6157 28 11.3893 28 11.163 28C8.59588 27.7202 6.34631 26.6824 4.41426 24.8864C1.96858 22.5685 0.497156 19.6938 0 16.2624C0 15.6651 0 15.0677 0 14.4704C0.189099 12.7742 0.705509 11.1913 1.54924 9.7216C2.78337 7.67182 4.31846 5.90222 6.1545 4.4128C8.17606 2.75556 10.3973 1.45636 12.8183 0.5152C13.4486 0.292936 14.0852 0.121202 14.7284 0ZM13.5399 3.36C13.573 6.9169 14.9312 9.7617 17.6146 11.8944C18.0177 12.1893 18.4279 12.473 18.8455 12.7456C19.6587 13.1971 20.4652 13.6601 21.2649 14.1344C21.566 14.3179 21.8277 14.5494 22.0501 14.8288C22.1686 15.082 22.2323 15.3508 22.2411 15.6352C22.0977 16.9382 21.6803 18.1328 20.989 19.2192C20.6278 18.5548 20.1539 17.9948 19.5671 17.5392C18.9512 17.117 18.3145 16.7287 17.657 16.3744C17.3851 16.2297 17.2437 15.9983 17.2326 15.68C17.3828 14.9337 17.3898 14.187 17.2538 13.44C16.7161 11.777 15.6054 10.9258 13.9219 10.8864C12.9502 10.9487 12.0164 11.1802 11.1205 11.5808C8.75989 12.6207 6.78621 14.1962 5.19949 16.3072C4.57458 17.1931 4.09355 18.1638 3.75637 19.2192C2.36792 16.4403 2.46697 13.7224 4.05348 11.0656C5.11108 9.38166 6.40565 7.92566 7.93718 6.6976C9.6573 5.31915 11.5249 4.20661 13.5399 3.36Z" fill="white"/>
</svg>
